<svg width="602" height="680" viewBox="0 0 602 680" fill="none" xmlns="http://www.w3.org/2000/svg">
<path d="M300.926 679C406.081 679 491.326 669.891 491.326 658.655C491.326 647.419 406.081 638.31 300.926 638.31C195.771 638.31 110.526 647.419 110.526 658.655C110.526 669.891 195.771 679 300.926 679Z" fill="#EBEBEB"/>
<path d="M193.495 527.738C186.126 528.033 177.874 528.475 171.832 523.61C166.232 519.187 161.221 512.553 161.958 505.034C162.105 502.823 162.695 501.496 164.905 502.528C168.442 504.002 171.095 507.835 173.6 510.489C176.695 514.027 180.084 517.271 183.768 520.219C186.421 522.283 189.221 523.905 191.874 525.969C192.168 526.264 192.61 526.411 192.905 526.706C193.053 526.854 193.2 526.854 193.347 527.001H193.495C193.642 527.001 193.789 527.001 193.789 527.149V527.296C193.937 527.591 193.789 527.738 193.495 527.738Z" fill="#37474F"/>
<path d="M193.937 527.296C187.453 527.149 180.379 527.443 175.221 523.021C172.863 520.957 170.8 518.45 169.179 515.649C168.442 514.47 166.232 510.784 167.116 509.31C168.737 506.656 176.547 517.418 177.579 518.45C181.558 522.283 186.568 524.495 191.874 525.822C192.168 526.117 192.61 526.264 192.905 526.559C189.074 525.674 185.537 524.347 182.147 522.431C177.579 519.63 174.926 515.649 171.389 511.816C170.653 510.931 168.295 508.278 167.411 509.899C166.821 511.079 169.032 514.617 169.474 515.354C171.095 517.861 172.863 520.367 175.221 522.283C180.379 527.149 187.305 527.001 193.937 527.296Z" fill="white"/>
<path d="M197.621 532.309C197.621 532.603 197.474 532.898 197.474 533.193C197.474 533.341 197.474 533.341 197.326 533.341C197.179 533.341 197.032 533.341 196.884 533.193V533.046C196.884 533.046 196.884 533.046 196.884 532.898C196.884 532.751 196.884 532.751 197.032 532.603C197.032 532.603 197.032 532.603 197.032 532.456C195.705 527.591 195.263 522.431 193.789 517.566C192.463 512.848 190.842 508.278 189.958 503.56C189.368 500.611 187.305 485.426 193.937 487.343C196.884 488.227 198.947 492.503 199.979 495.009C201.453 498.4 202.189 502.086 202.484 505.771C202.779 515.207 199.537 523.463 197.621 532.309Z" fill="#37474F"/>
<path d="M199.684 513.585C199.832 510.194 199.537 506.656 198.653 503.413C198.358 502.233 196.884 496.778 194.968 496.926C193.789 497.073 193.495 499.432 193.495 500.169C193.053 503.56 194.232 506.951 194.821 510.194C196.147 516.829 196.884 523.61 197.326 530.245C197.326 530.687 197.179 531.129 197.179 531.571C197.179 531.866 197.032 532.309 197.032 532.603C197.032 532.751 197.032 532.898 197.032 532.898C197.032 533.046 197.032 533.046 197.032 533.193C197.032 533.341 197.326 533.341 197.474 533.341C197.474 533.046 197.621 532.751 197.621 532.456C197.621 532.751 197.621 532.898 197.621 533.193C197.621 532.898 197.768 532.751 197.768 532.456V532.309C197.768 531.866 197.768 531.571 197.768 531.129C198.505 525.379 199.537 519.482 199.684 513.585ZM197.474 528.77C197.326 524.79 196.884 520.957 196.295 516.976C195.853 513.88 195.263 510.637 194.526 507.541C194.084 505.771 193.789 504.002 193.642 502.233C193.642 500.906 193.789 495.746 196.442 498.99C198.358 501.349 198.8 506.214 198.947 509.015C199.242 512.111 199.095 515.207 198.8 518.303C198.653 521.694 198.063 525.232 197.474 528.77Z" fill="white"/>
<path d="M201.6 552.506C201.453 552.506 201.305 552.506 201.305 552.506C194.526 552.211 185.537 552.801 179.937 548.378C175.81 545.135 171.684 538.501 173.01 533.046C174.484 526.854 182.884 534.225 185.095 536.142C190.695 540.712 201.6 552.064 201.6 552.211C201.6 552.211 201.6 552.359 201.747 552.359C201.895 552.506 201.747 552.506 201.6 552.506Z" fill="#37474F"/>
<path d="M201.895 552.359C201.453 552.064 201.158 551.917 200.716 551.622C196.295 548.821 192.021 545.872 187.747 542.629C186.716 541.891 179.053 535.11 178.021 537.469C177.284 538.943 179.789 541.891 180.674 542.923C182.147 544.693 183.916 546.314 185.832 547.494C190.4 550.295 195.853 550.885 200.863 552.211C201.158 552.211 201.305 552.359 201.6 552.359C201.6 552.359 201.747 552.359 201.747 552.506C201.747 552.506 201.895 552.506 201.895 552.359ZM188.484 548.526C186.274 547.494 184.358 546.167 182.589 544.545C181.41 543.513 177.432 539.385 178.463 537.763C179.053 536.879 179.495 537.321 180.526 537.911C180.968 538.206 181.558 538.501 182 538.795C183.179 539.533 184.21 540.417 185.242 541.302C187.158 542.776 188.926 544.25 190.842 545.577C193.937 547.936 197.179 550 200.568 552.064C196.589 550.737 192.316 550.295 188.484 548.526Z" fill="white"/>
<path d="M213.978 538.648C212.21 546.314 208.083 553.391 202.483 558.846H202.336C202.189 558.846 202.041 558.846 202.041 558.698C201.894 558.551 201.894 558.403 202.041 558.256C202.189 558.109 202.336 557.961 202.336 557.961C203.515 548.821 204.694 539.68 205.578 530.392C205.725 528.181 207.494 514.47 211.768 516.681C214.42 518.008 214.568 523.758 214.715 526.264C215.157 530.539 214.862 534.667 213.978 538.648Z" fill="#37474F"/>
<path d="M211.474 526.411C211.179 525.674 210.884 524.79 210 525.379C208.379 526.411 207.642 532.898 207.495 534.667C206.316 542.039 204.547 549.115 202.779 556.487C202.632 557.077 202.484 557.666 202.337 558.256C202.189 558.403 202.042 558.551 201.895 558.846C202.042 558.993 202.042 558.993 202.189 558.993V558.846C202.337 558.551 202.632 558.403 202.779 558.109C205.726 554.128 207.937 549.705 209.411 545.135C210.442 542.186 211.032 539.09 211.326 535.994C211.768 533.046 212.358 529.213 211.474 526.411ZM202.779 557.519C202.632 557.666 202.632 557.814 202.484 557.814C202.632 557.519 202.632 557.371 202.779 557.077C204.547 551.622 205.874 545.872 206.905 540.27C207.347 537.321 207.642 534.52 208.232 531.571C208.526 530.392 209.116 526.854 210.147 526.264C211.179 525.674 211.179 527.001 211.179 527.886C211.179 528.475 211.179 529.507 211.326 529.95C211.474 540.122 208.379 549.41 202.779 557.519Z" fill="white"/>
<path d="M203.516 578.601H202.189C202.189 577.422 202.189 576.242 202.042 575.063C201.895 570.198 201.747 565.48 201.453 560.615C201.305 557.814 201.158 555.16 200.863 552.506C200.863 552.359 200.863 552.359 200.863 552.211C200.863 552.064 200.863 551.769 200.716 551.474C200.716 551.179 200.716 551.032 200.568 550.737C199.832 544.693 198.505 538.795 196 533.046C195.116 531.129 194.232 529.36 193.2 527.591C193.053 527.443 193.053 527.296 192.905 527.149C192.905 527.149 192.905 527.001 192.758 527.001C192.61 526.854 192.61 526.706 192.463 526.411C192.316 526.264 192.316 526.117 192.168 525.969C189.074 520.514 185.537 515.207 182.147 509.899C181.116 508.425 180.232 506.803 179.2 505.329C179.2 505.182 179.053 505.182 179.053 505.034C178.905 504.887 178.905 504.887 178.905 504.739C174.632 497.958 170.505 491.176 166.084 484.689C165.937 484.394 166.379 484.247 166.526 484.542C169.474 488.965 172.568 493.24 175.663 497.515C176.105 498.105 176.547 498.695 176.842 499.285C177.726 500.464 178.463 501.496 179.2 502.675C180.821 505.034 182.442 507.246 183.916 509.605C188.189 516.091 192.758 522.726 196.295 529.655C196.589 530.245 196.737 530.687 197.032 531.277C197.179 531.571 197.326 532.014 197.474 532.309C197.621 532.751 197.768 533.046 198.063 533.488C201.01 540.417 202.189 547.494 202.632 554.718C202.632 555.16 202.632 555.75 202.779 556.192C202.779 556.487 202.779 556.634 202.779 556.929C202.779 557.077 202.779 557.224 202.779 557.371C202.779 557.519 202.779 557.666 202.779 557.814C202.779 557.961 202.779 558.109 202.779 558.109C202.779 558.551 202.779 558.993 202.779 559.435C202.926 564.301 203.074 569.018 203.221 573.736C203.368 575.653 203.368 577.127 203.516 578.601Z" fill="#37474F"/>
<path d="M163.137 491.766C159.453 486.753 154.737 476.581 160.189 471.273C162.4 469.062 165.495 468.914 167.853 470.683C170.8 472.747 171.979 476.728 173.011 479.971C175.516 488.67 177.137 497.515 180.232 506.066C180.232 506.066 180.526 506.803 180.526 506.951C180.526 507.098 180.379 507.246 180.232 507.098C180.084 506.803 180.084 506.509 179.937 506.214C174.189 501.938 167.558 497.663 163.137 491.766Z" fill="#37474F"/>
<path d="M180.379 506.066C180.379 506.066 180.379 505.919 180.232 505.919C178.905 503.855 177.874 501.643 176.842 499.432C174.779 494.862 173.158 489.997 171.537 485.131C170.947 483.215 168.295 474.074 165.053 477.76C163.726 479.234 163.874 482.035 164.021 483.952C164.316 486.901 165.347 489.849 166.821 492.503C169.768 497.81 174.337 501.791 179.053 505.329C179.2 505.477 179.495 505.624 179.642 505.771C179.642 505.919 179.789 505.919 179.789 506.066C179.789 506.066 179.789 506.214 179.937 506.214C179.937 506.214 179.937 506.214 180.084 506.214C180.232 506.361 180.379 506.361 180.379 506.066ZM178.905 505.034C175.074 501.938 171.242 498.695 168.442 494.567C166.968 492.503 165.789 490.144 165.053 487.638C164.758 486.606 164.463 485.426 164.316 484.247C164.168 483.362 164.168 482.478 164.168 481.741C164.168 479.824 165.053 477.76 166.084 477.613C167.41 477.318 167.853 478.202 168.884 479.677C169.179 480.266 169.474 480.709 169.768 481.298C170.358 482.773 170.8 484.099 171.242 485.574C171.979 487.933 172.716 490.439 173.6 492.798C174.189 494.419 174.779 496.041 175.516 497.515C176.695 500.169 178.021 502.823 179.495 505.329C179.347 505.477 179.2 505.182 178.905 505.034Z" fill="white"/>
<path d="M409.095 505.624C408.505 510.489 407.474 515.354 406.589 520.219C406 523.021 405.411 525.674 404.821 528.475C404.232 531.571 403.347 534.667 404.084 537.616V538.058C403.937 538.206 403.495 538.206 403.495 537.911V537.763C402.905 537.026 402.611 535.699 402.463 535.257C401.432 532.898 400.695 530.539 399.958 528.181C398.484 523.168 397.747 518.155 397.6 512.995C397.453 508.425 397.895 503.707 399.074 499.285C399.958 495.746 401.137 490.439 403.937 487.638C406.295 485.131 408.358 489.112 409.095 491.176C410.421 495.746 409.684 501.054 409.095 505.624Z" fill="#37474F"/>
<path d="M404.674 495.304C402.905 495.304 401.579 501.054 400.989 503.56C399.958 507.541 399.516 511.521 399.516 515.649C399.516 523.021 400.842 530.245 403.2 537.174C403.347 537.469 403.347 537.763 403.495 538.058V538.206C403.642 538.501 403.937 538.501 404.084 538.353C403.937 537.763 403.937 537.174 403.789 536.584C403.789 535.994 403.642 535.552 403.642 534.962C403.2 529.065 403.937 523.021 404.674 517.123C405.705 510.194 407.032 495.304 404.674 495.304ZM403.347 535.994C403.495 536.731 403.495 537.616 403.642 538.353C403.495 537.763 403.347 537.174 403.053 536.584C401.137 530.392 399.811 524.053 399.663 517.713C399.516 514.027 399.811 510.489 400.4 506.951C400.695 505.034 401.284 503.118 401.726 501.349C402.021 500.611 403.347 495.746 404.379 495.894C405.116 496.041 405.41 500.464 405.41 500.464C405.41 501.349 405.41 502.233 405.41 503.118C405.41 504.887 405.263 506.803 405.116 508.573C404.821 512.406 404.232 516.386 403.789 520.219C403.347 525.379 402.758 530.834 403.347 535.994Z" fill="white"/>
<path d="M437.389 519.335C434.147 525.822 428.547 530.687 422.8 534.962C419.705 537.174 416.611 539.385 413.368 541.449C410.716 543.218 407.621 545.282 405.263 547.641C405.116 547.789 405.116 547.789 404.968 547.936C404.379 548.673 403.789 549.41 403.347 550.295L403.2 550.442C403.2 550.59 403.2 550.59 403.053 550.737H402.905C402.905 550.59 402.905 550.59 402.905 550.442C402.905 550.442 402.758 550.295 402.905 550.147C402.905 550.147 402.905 550.147 402.905 550C402.905 549.853 402.905 549.853 402.905 549.705C403.789 542.186 409.095 534.52 413.516 528.77C417.937 523.021 423.389 517.861 430.316 515.207C432.084 514.617 435.916 512.701 437.684 514.175C439.453 515.354 437.979 517.861 437.389 519.335Z" fill="#37474F"/>
<path d="M432.232 519.335C430.61 517.713 426.042 521.694 424.863 522.578C421.326 525.379 418.232 528.623 415.284 531.866C410.421 537.321 406 542.923 403.053 549.558L402.905 549.705C402.905 549.853 402.905 549.853 402.905 550C402.905 550 402.905 550 402.905 550.147C402.905 550.295 402.905 550.295 402.905 550.442C403.053 550.295 403.053 550.295 403.2 550.147C403.789 549.41 404.379 548.821 404.968 548.083C405.116 547.936 405.116 547.789 405.263 547.789C409.537 543.218 414.695 539.238 419.558 535.257C422.947 532.456 426.189 529.36 428.989 525.969C429.726 524.937 433.558 520.662 432.232 519.335ZM430.758 522.726C426.926 529.213 420.147 533.93 414.4 538.648C410.568 541.744 406.737 545.135 403.495 548.968C406.295 543.071 410.568 537.911 414.695 533.046C417.2 530.245 419.705 527.591 422.505 525.085C423.979 523.758 425.6 522.431 427.221 521.251C427.958 520.809 429.432 519.777 430.463 519.482C432.674 519.04 431.495 521.694 430.758 522.726Z" fill="white"/>
<path d="M402.316 565.627C402.316 565.775 402.168 565.775 402.021 565.775C402.021 565.775 402.021 565.922 402.168 565.922V566.07H402.021C395.979 559.878 390.084 552.359 386.989 544.103C385.663 540.565 384.926 537.026 384.779 533.341C384.779 530.834 384.632 525.674 386.695 523.905C391.116 520.219 394.947 535.994 395.684 538.353C396.716 542.629 397.453 547.051 398.484 551.474C399.516 556.192 400.989 560.91 402.463 565.48C402.316 565.48 402.316 565.627 402.316 565.627Z" fill="#37474F"/>
<path d="M402.316 565.627C402.021 565.185 401.874 564.89 401.579 564.448C397.895 557.814 395.389 550.885 393.768 543.366C393.032 539.68 392.295 535.847 390.821 532.309C390.526 531.424 389.347 528.033 387.874 529.802C387.137 530.687 387.726 537.026 388.021 538.648C388.758 542.334 389.937 546.019 391.558 549.41C394.211 555.16 397.6 560.762 401.579 565.627C401.726 565.775 401.874 565.922 401.874 566.07V565.922C401.874 565.922 401.874 565.922 401.726 565.775C402.021 565.775 402.168 565.775 402.316 565.627ZM393.474 552.064C391.705 548.673 390.232 545.282 389.347 541.597C388.905 540.122 388.611 538.648 388.463 537.174C388.316 535.994 388.168 534.815 388.168 533.635C388.168 530.834 388.463 529.95 388.905 529.95C389.2 529.95 389.642 530.245 390.526 531.866C391.116 532.898 391.41 534.225 391.705 535.405C392.147 537.026 392.589 538.795 392.884 540.565C393.621 543.955 394.358 547.494 395.389 550.737C396.863 555.602 398.779 560.173 401.432 564.448C398.337 560.615 395.684 556.487 393.474 552.064Z" fill="white"/>
<path d="M421.768 550.59C421.179 553.686 419.558 556.487 417.789 558.846C414.105 563.858 409.537 567.986 405.558 572.704C404.968 573.441 404.379 574.178 403.789 574.915C403.789 575.063 403.347 576.095 403.347 575.947C403.347 575.947 403.347 575.505 403.495 574.915C404.084 571.672 406.147 561.647 408.8 556.487C410.421 553.391 412.189 550.147 414.547 547.494C415.726 546.167 418.232 543.513 420.295 544.103C422.505 544.693 422.063 548.968 421.768 550.59Z" fill="#37474F"/>
<path d="M418.526 548.526C416.463 547.199 411.01 556.929 410.274 558.256C407.621 562.974 405.411 567.986 404.084 573.146C403.937 573.736 403.789 574.326 403.642 574.915C403.495 575.653 403.495 575.947 403.495 575.947C403.495 575.947 403.937 575.063 403.937 574.915C404.084 574.768 404.084 574.621 404.232 574.473C404.674 573.883 405.116 573.294 405.705 572.704C408.063 569.166 410.568 565.627 412.779 562.089C414.4 559.435 416.021 556.782 417.2 553.981C417.347 553.391 419.558 549.115 418.526 548.526ZM417.937 551.327C414.989 559.878 408.8 566.512 404.084 574.031C403.937 574.178 403.937 574.326 403.789 574.326C403.789 574.178 403.937 573.883 403.937 573.589C405.263 569.313 406.884 565.185 408.947 561.205C410.126 558.846 411.6 556.487 413.074 554.275C413.958 553.096 414.695 551.769 415.726 550.59C416.168 550.147 417.347 548.821 417.789 549.115C418.526 549.41 418.232 550.737 417.937 551.327Z" fill="white"/>
<path d="M442.989 480.561C436.653 495.009 420.147 501.791 413.074 515.649C412.926 516.091 412.632 516.534 412.484 516.976C412.337 517.123 412.189 517.123 412.042 516.976C412.042 516.976 412.042 516.829 412.042 516.681C412.042 516.534 412.189 516.534 412.189 516.386C413.368 507.688 416.905 498.695 421.032 491.029C424.716 484.394 429.579 478.202 436.505 474.664C438.126 473.779 441.516 472.01 443.432 473.337C445.2 475.106 443.874 478.792 442.989 480.561Z" fill="#37474F"/>
<path d="M437.389 481.151C436.653 480.561 435.326 481.298 434.737 481.593C432.968 482.478 431.347 483.657 430.021 484.837C427.074 487.343 424.568 490.586 422.358 493.83C418.821 499.432 415.432 505.624 413.368 511.963C412.926 513.438 412.484 514.912 412.189 516.386C412.189 516.534 412.042 516.681 412.042 516.976C412.189 517.123 412.484 517.123 412.484 516.976C412.632 516.534 412.926 516.091 413.074 515.649C413.074 515.649 413.074 515.649 413.074 515.502C414.253 512.701 415.726 509.899 417.495 507.246C420.295 503.265 423.684 499.727 426.926 496.041C428.253 494.862 440.189 483.215 437.389 481.151ZM436.358 484.542C434.442 487.933 431.495 490.734 428.842 493.535C426.189 496.483 423.537 499.285 421.032 502.233C418.968 504.592 417.2 507.098 415.579 509.752C414.253 511.963 413.074 514.322 412.189 516.681C412.779 514.175 413.663 511.816 414.695 509.457C414.695 509.457 414.695 509.457 414.695 509.31C416.463 505.182 418.526 501.054 420.737 497.221C420.737 497.221 420.737 497.073 420.884 497.073C422.8 493.682 425.01 490.291 427.81 487.343C429.284 485.721 430.905 484.394 432.821 483.067C434.884 481.741 436.653 480.856 437.242 481.593C437.537 482.183 436.947 483.51 436.358 484.542Z" fill="white"/>
<path d="M421.032 497.515C419.116 501.643 417.347 505.771 415.579 509.899C414.695 511.816 413.958 513.733 413.074 515.797V515.944C412.779 516.681 412.484 517.418 412.189 518.008C409.537 524.347 406.442 530.834 404.821 537.616C403.937 541.154 403.495 544.84 403.347 548.526C403.347 548.968 403.347 549.263 403.347 549.705C403.347 549.853 403.347 550.147 403.347 550.295C403.347 550.442 403.347 550.59 403.347 550.59C403.2 553.686 403.347 556.929 403.347 560.025C403.495 564.301 403.789 568.576 404.232 572.851C404.232 572.999 404.232 573.146 404.232 573.294C404.232 573.441 404.232 573.736 404.232 573.883C404.232 574.031 404.232 574.031 404.232 574.178C404.232 574.326 404.232 574.473 404.232 574.768C404.379 576.095 404.526 577.569 404.674 578.896H403.347C402.463 574.768 402.021 570.493 401.726 566.217C401.726 566.07 401.726 566.07 401.726 565.922C401.726 565.48 401.726 565.038 401.726 564.743C401.726 564.301 401.726 563.711 401.726 563.269C401.726 562.089 401.579 560.762 401.579 559.583C401.432 552.506 401.579 545.135 403.053 538.206C403.053 538.058 403.2 537.763 403.2 537.616C403.2 537.469 403.2 537.469 403.2 537.321C403.2 537.174 403.2 537.026 403.347 536.879L403.495 536.289C403.642 535.847 403.642 535.552 403.789 535.11C403.789 534.962 403.789 534.815 403.937 534.815C405.705 528.77 408.653 522.873 411.158 517.271C411.6 516.239 412.189 515.207 412.632 514.175C412.926 513.585 413.221 512.995 413.516 512.406C413.958 511.521 414.4 510.637 414.842 509.752C414.842 509.752 414.842 509.752 414.842 509.605C416.905 505.477 418.968 501.496 420.884 497.515C420.884 497.221 421.179 497.368 421.032 497.515Z" fill="#37474F"/>
<path d="M170.8 578.306H78.4C78.4 578.306 78.5474 564.595 87.6842 560.91C96.821 557.224 102.126 564.448 102.126 564.448C102.126 564.448 105.811 539.238 122.758 539.238C139.705 539.238 147.811 561.057 147.811 561.057C147.811 561.057 151.642 554.423 160.926 555.75C170.358 556.782 170.8 578.306 170.8 578.306Z" fill="#37474F"/>
<path d="M592.126 578.306C592.126 578.306 589.326 565.038 583.579 563.121C577.979 561.057 574.442 566.954 574.442 566.954C574.442 566.954 573.116 554.275 565.158 550.59C557.2 546.757 551.158 554.57 551.158 554.57C551.158 554.57 544.968 538.501 534.063 538.501C523.011 538.501 517.558 561.942 517.558 561.942C517.558 561.942 511.074 555.013 504.442 558.846C497.811 562.826 497.811 578.306 497.811 578.306H592.126V578.306Z" fill="#37474F"/>
<path d="M94.9053 578.306H9.87369C9.87369 578.306 12.6737 566.365 18.2737 565.48C23.8737 564.595 26.5263 570.198 26.5263 570.198C26.5263 570.198 26.2316 553.391 36.8421 550.59C47.4526 547.789 56.2947 562.531 56.2947 562.531C56.2947 562.531 62.9263 554.128 71.9158 554.57C80.9053 555.16 83.2632 569.018 83.2632 569.018C83.2632 569.018 91.3684 564.153 94.9053 578.306Z" fill="#455A64"/>
<path d="M503.853 578.306H451.537C451.537 578.306 451.684 570.493 456.842 568.429C462 566.365 465.095 570.345 465.095 570.345C465.095 570.345 467.158 556.045 476.737 556.045C486.316 556.045 490.884 568.429 490.884 568.429C490.884 568.429 493.095 564.743 498.4 565.333C503.705 566.07 503.853 578.306 503.853 578.306Z" fill="#455A64"/>
<path d="M208.379 201.921C208.379 216.074 208.379 283.449 271.747 294.506C271.747 294.506 272.779 301.583 274.842 312.787C277.2 326.351 281.179 345.664 286.189 365.419V365.567C287.958 372.349 289.874 379.13 291.937 385.765V385.912C292.084 386.502 292.379 387.091 292.526 387.829C296.8 401.392 300.042 414.218 302.4 426.455C321.853 527.296 280.442 578.896 280.442 578.896H367.684C367.684 578.896 389.347 484.542 343.368 389.893C334.821 372.349 368.568 358.048 383.453 325.466C395.979 297.897 395.537 161.968 389.495 153.27C383.453 144.571 373.726 146.635 373.726 158.725C373.726 170.814 373.726 283.597 365.179 305.563C356.632 327.53 320.379 353.773 320.379 353.773C320.379 353.773 301.81 323.255 291.347 256.47C286.484 225.067 283.389 185.557 284.863 137.495C285.158 127.322 285.747 116.707 286.484 105.798C287.368 93.2663 274.4 98.7212 269.979 109.778C265.558 120.688 259.516 184.23 268.21 269.738C268.21 269.738 224.737 263.546 224.737 195.287C224.884 182.313 208.379 187.768 208.379 201.921Z" fill="#FFC727"/>
<path opacity="0.5" d="M208.379 201.921C208.379 216.074 208.379 283.449 271.747 294.506C271.747 294.506 272.779 301.583 274.842 312.787C277.2 326.351 281.179 345.664 286.189 365.419V365.567C287.958 372.349 289.874 379.13 291.937 385.765V385.912C292.084 386.502 292.379 387.091 292.526 387.829C296.8 401.392 300.042 414.218 302.4 426.455C321.853 527.296 280.442 578.896 280.442 578.896H367.684C367.684 578.896 389.347 484.542 343.368 389.893C334.821 372.349 368.568 358.048 383.453 325.466C395.979 297.897 395.537 161.968 389.495 153.27C383.453 144.571 373.726 146.635 373.726 158.725C373.726 170.814 373.726 283.597 365.179 305.563C356.632 327.53 320.379 353.773 320.379 353.773C320.379 353.773 301.81 323.255 291.347 256.47C286.484 225.067 283.389 185.557 284.863 137.495C285.158 127.322 285.747 116.707 286.484 105.798C287.368 93.2663 274.4 98.7212 269.979 109.778C265.558 120.688 259.516 184.23 268.21 269.738C268.21 269.738 224.737 263.546 224.737 195.287C224.884 182.313 208.379 187.768 208.379 201.921Z" fill="black"/>
<g opacity="0.1">
<g opacity="0.1">
<path opacity="0.1" d="M324.358 388.713C329.368 405.815 336.147 422.474 341.158 439.576C346.168 456.825 350.147 474.517 352.358 492.208C354.568 509.31 355.158 526.559 354.126 543.808C353.389 555.602 350.589 567.102 348.674 578.749H356.632C366.063 551.769 364.737 521.251 359.874 493.977C356.632 475.991 351.621 458.594 345.874 441.198C339.979 423.506 334.379 405.373 327.01 388.123C326.421 386.502 323.916 387.091 324.358 388.713Z" fill="black"/>
<path opacity="0.1" d="M289.284 286.84C292.821 322.813 308.737 357.901 320.084 392.251C331.726 427.339 336 463.165 333.789 499.727C333.789 500.611 332.316 500.611 332.316 499.727C332.021 480.119 331.579 460.216 327.6 440.903C323.916 423.359 318.168 406.11 312.274 389.155C306.526 372.496 300.189 355.837 295.474 338.882C290.758 321.781 288.253 304.531 287.516 286.987C287.663 285.808 289.284 285.808 289.284 286.84Z" fill="black"/>
<path opacity="0.1" d="M289.432 578.601H298.274C300.779 573.736 302.842 568.723 305.053 563.858C311.242 549.558 315.958 534.52 318.758 519.187C324.505 489.112 323.179 459.331 316.253 429.551C316.105 428.666 314.632 429.109 314.779 429.846C319.937 459.479 318.463 490.586 311.537 519.925C308.147 534.225 303.579 548.378 297.684 562.089C295.474 567.839 292.526 573.294 289.432 578.601Z" fill="black"/>
<path opacity="0.1" d="M322.147 539.827C324.21 533.193 325.389 525.085 328.779 518.893C330.105 516.534 332.316 514.912 334.968 514.617C335.116 514.617 335.41 514.47 335.558 514.47C335.853 514.47 336.147 514.47 336.442 514.617C337.032 514.617 337.474 514.765 338.063 515.059C339.095 515.354 340.421 516.091 340.568 517.271V517.418C344.4 522.873 343.074 534.815 342.484 539.09C341.6 545.872 339.684 563.711 327.895 562.089C316.547 560.615 320.232 546.167 322.147 539.827Z" fill="black"/>
<path opacity="0.1" d="M274.842 312.64C277.2 326.203 281.179 345.517 286.189 365.272V365.419C286.779 367.631 287.516 369.842 288.253 372.201C289.579 376.771 290.905 381.194 292.084 385.765V385.912C292.232 386.502 292.526 387.091 292.674 387.829C296.947 401.392 300.189 414.218 302.547 426.455C304.61 409.501 301.368 392.694 296.358 375.887C290.021 354.362 282.947 333.427 274.842 312.64Z" fill="black"/>
<path opacity="0.1" d="M381.389 269.149C381.389 267.969 381.684 266.79 382.274 265.61C382.716 264.726 384.042 264.283 385.074 264.431C386.253 264.578 386.989 265.315 387.432 266.2C387.432 266.347 387.579 266.495 387.579 266.495C387.726 266.79 387.874 266.937 388.021 267.379C388.168 267.969 388.168 268.559 388.021 269.001C388.758 270.328 388.168 272.097 386.989 273.129C385.516 274.456 383.305 274.014 382.274 272.539C381.389 271.507 381.242 270.328 381.389 269.149Z" fill="black"/>
<path opacity="0.1" d="M332.021 357.311C352.505 335.344 376.821 309.544 376.674 279.174C376.674 278.437 377.853 278.437 378 279.174C382.716 312.64 358.989 337.408 333.789 358.933C332.611 359.965 330.989 358.343 332.021 357.311Z" fill="black"/>
<path opacity="0.1" d="M335.116 372.054C336.147 366.599 340.863 361.881 344.842 357.901C350.295 352.446 356.042 347.581 360.611 341.536C361.2 340.799 362.526 341.389 362.084 342.273C358.695 347.728 354.568 352.446 350.147 357.163C345.432 362.176 341.747 368.073 336.737 372.791C336 373.675 334.968 372.791 335.116 372.054Z" fill="black"/>
<path opacity="0.1" d="M385.958 172.435C385.958 171.846 386.842 171.846 386.989 172.435C390.968 199.12 391.558 227.721 386.105 254.258C385.958 255.143 384.484 254.848 384.484 254.111C384.484 226.837 385.958 199.562 385.958 172.435Z" fill="black"/>
<path opacity="0.1" d="M379.474 213.715C379.474 213.568 379.768 213.568 379.768 213.715C379.916 231.407 379.916 250.425 375.642 267.674C375.347 268.706 373.579 268.411 373.579 267.379C373.874 249.688 377.41 231.407 379.474 213.715Z" fill="black"/>
<path opacity="0.1" d="M223.411 241.727C227.832 253.374 232.842 263.989 243.305 272.392C248.021 276.225 253.326 279.616 259.074 282.417C264.526 284.923 270.716 286.103 276.021 288.904C276.758 289.346 276.316 290.231 275.579 290.378C262.758 291.705 248.021 282.417 239.768 274.309C230.779 265.61 222.674 254.258 221.789 242.022C221.642 240.99 223.116 240.842 223.411 241.727Z" fill="black"/>
<path opacity="0.1" d="M221.495 215.19C224.147 237.009 236.968 255.438 253.621 270.77C254.063 271.213 253.474 271.95 252.884 271.655C231.958 259.123 221.789 237.157 221.053 215.19C221.053 215.042 221.495 215.042 221.495 215.19Z" fill="black"/>
<path opacity="0.1" d="M270.716 167.423C270.863 166.686 272.189 166.538 272.189 167.423C271.158 215.927 281.621 263.694 285.747 311.903C285.747 312.64 284.274 312.935 284.126 312.05C279.41 288.462 275.726 264.431 272.779 240.547C269.832 216.222 268.211 191.749 270.716 167.423Z" fill="black"/>
<path opacity="0.1" d="M277.347 195.582C278.674 215.485 283.389 236.862 291.495 256.027C286.632 224.625 283.537 185.114 285.01 137.053C282.8 143.834 280.884 150.616 279.558 157.545C277.053 170.224 276.463 182.903 277.347 195.582Z" fill="black"/>
<path opacity="0.1" d="M271.305 140.591C272.042 136.315 274.105 132.335 274.989 128.059C275.137 127.175 276.905 127.175 277.053 128.059C277.642 131.745 276.463 134.989 275.284 138.527C273.81 143.539 273.516 148.699 272.779 153.859C272.632 154.891 271.158 154.891 271.01 153.859C270.716 149.584 270.568 145.014 271.305 140.591Z" fill="black"/>
<path opacity="0.1" d="M329.074 376.919C341.158 395.642 348.674 415.84 353.242 437.07C353.389 437.954 352.063 438.249 351.768 437.365C344.253 417.167 335.705 397.411 327.747 377.361C327.453 376.771 328.632 376.329 329.074 376.919Z" fill="black"/>
<path opacity="0.1" d="M307.411 393.873C311.242 401.097 315.663 411.712 313.895 419.968C313.895 420.115 313.6 420.115 313.453 419.968C311.389 416.282 310.8 412.154 309.768 408.174C308.589 403.603 306.968 399.033 305.789 394.463C305.642 393.726 306.968 392.989 307.411 393.873Z" fill="black"/>
<path opacity="0.1" d="M334.084 575.8C339.979 568.429 343.074 560.762 344.842 551.917C346.905 541.597 348.968 530.392 346.905 519.925C345.137 511.374 341.895 503.265 340.568 494.567C339.095 484.099 338.947 473.779 340.126 463.312C340.126 462.722 341.305 462.575 341.305 463.312C340.863 475.401 342.042 487.49 345.137 499.137C347.789 508.867 352.063 518.155 351.916 528.328C351.768 543.808 349.263 565.922 335.558 576.685C334.821 577.422 333.347 576.537 334.084 575.8Z" fill="black"/>
<path opacity="0.1" d="M315.516 578.601H320.674C320.968 576.242 320.821 573.736 319.937 570.787C318.168 564.743 314.779 558.109 315.811 551.769C315.811 551.474 315.368 551.179 315.074 551.474C310.947 560.615 314.337 569.608 315.516 578.601Z" fill="black"/>
<path opacity="0.1" d="M316.842 546.167C316.989 546.167 316.989 546.167 316.842 546.167C316.4 546.904 316.105 547.789 316.253 548.673C316.253 547.789 316.4 546.904 316.842 546.167Z" fill="black"/>
</g>
</g>
<path d="M0 578.601L75.3053 578.306L150.463 578.159L300.926 577.864L451.537 578.159L526.695 578.306L602 578.601L526.695 579.043L451.537 579.191L300.926 579.338L150.463 579.191L75.3053 579.043L0 578.601Z" fill="#263238"/>
<path d="M515.166 191.77C523.872 154.088 500.395 116.48 462.729 107.77C425.063 99.0607 387.47 122.547 378.764 160.229C370.058 197.911 393.535 235.518 431.201 244.228C468.867 252.938 506.46 229.451 515.166 191.77Z" fill="#455A64"/>
<path d="M445.195 156.536C445.048 160.959 445.195 165.529 445.195 170.394H462.585C461.848 176.144 461.259 181.451 460.374 186.611C460.374 187.201 459.048 187.791 458.311 187.791C454.185 187.938 449.911 187.791 445.343 187.791V246.025C438.859 245.878 432.817 244.846 426.922 243.224V188.086H411.743V170.542H426.627C426.627 169.215 426.774 168.183 426.774 167.151C426.922 162.58 426.774 157.863 427.217 153.292C428.101 143.267 434.29 136.191 444.164 134.864C450.353 133.979 456.69 134.716 463.174 134.716V150.639C460.964 150.639 458.606 150.639 456.248 150.639C454.185 150.639 452.122 150.639 450.206 151.081C447.259 151.671 445.343 153.587 445.195 156.536Z" fill="white"/>
<path d="M374.491 148.552C401.827 121.204 401.827 76.8648 374.491 49.5172C347.155 22.1696 302.833 22.1696 275.497 49.5172C248.161 76.8648 248.161 121.204 275.497 148.552C302.833 175.899 347.155 175.899 374.491 148.552Z" fill="#455A64"/>
<path d="M286.818 131.884C296.102 132.032 304.502 129.82 312.018 124.071C301.555 120.975 297.429 117.731 295.955 111.834C298.313 111.687 300.671 111.539 302.881 111.539C294.629 108.443 289.765 102.841 289.176 93.8477C291.681 94.5848 294.039 95.1745 296.397 95.7642C288.881 86.3288 287.26 78.8099 291.829 72.0282C301.555 83.2328 313.786 89.5722 328.818 90.6042C328.818 89.4248 328.671 88.5402 328.671 87.6557C328.376 79.8419 331.618 73.9448 338.544 70.5539C345.471 67.1631 352.25 68.0477 358.144 72.9128C359.471 73.9448 360.65 74.2397 362.123 73.7974C364.923 72.7654 367.723 71.7334 370.818 70.5539C369.492 74.2396 367.134 77.0408 363.892 79.3996C363.892 79.5471 364.039 79.6945 364.039 79.8419C366.986 79.1048 369.786 78.3677 372.734 77.6305C372.881 77.7779 373.029 77.9254 373.029 77.9254C370.818 80.1368 368.608 82.4957 366.25 84.7071C365.071 85.8865 364.334 86.7711 364.334 88.5402C364.481 114.93 344.439 136.897 318.208 139.256C307.597 140.14 297.576 138.224 288.144 133.064C287.997 132.621 287.408 132.179 286.818 131.884Z" fill="white"/>
<path d="M371.25 276.043C380.041 238.38 356.649 200.719 319.002 191.924C281.355 183.13 243.709 206.531 234.918 244.194C226.127 281.856 249.519 319.517 287.166 328.312C324.813 337.107 362.459 313.705 371.25 276.043Z" fill="#FFC727"/>
<path d="M344.759 237C344.759 225.648 337.685 218.277 326.338 218.129C310.716 217.982 295.243 217.982 279.622 218.129C268.569 218.277 261.495 225.501 261.348 236.558C261.201 244.372 261.348 252.038 261.348 259.852C261.348 267.518 261.348 275.037 261.348 282.703C261.495 294.35 268.569 301.721 280.064 301.869C295.538 302.016 310.864 302.016 326.338 301.869C337.538 301.721 344.759 294.35 344.906 283.145C344.906 267.813 344.906 252.48 344.759 237ZM337.39 283.293C337.243 290.517 333.411 294.497 326.19 294.497C310.716 294.645 295.39 294.645 279.916 294.497C272.695 294.497 268.864 290.517 268.716 283.293C268.716 267.813 268.716 252.185 268.716 236.705C268.716 229.629 272.695 225.501 279.769 225.501C295.243 225.353 310.569 225.353 326.043 225.501C333.117 225.501 337.095 229.629 337.243 236.705C337.39 244.519 337.243 252.186 337.243 259.999C337.39 267.813 337.39 275.627 337.39 283.293Z" fill="white"/>
<path d="M303.053 238.18C291.116 238.18 281.39 247.763 281.243 259.704C281.095 271.793 290.527 281.524 302.464 281.819C314.695 282.113 324.569 272.531 324.716 260.294C324.864 248.205 315.285 238.18 303.053 238.18ZM302.906 274.595C295.095 274.447 288.759 267.96 288.611 260.294C288.464 252.333 295.095 245.846 303.201 245.846C311.306 245.846 317.79 252.333 317.79 260.294C317.495 268.108 310.716 274.742 302.906 274.595Z" fill="white"/>
<path d="M331.348 237.737C331.053 240.833 329.138 242.455 326.19 242.308C322.948 242.16 321.18 240.096 321.474 236.853C321.769 233.757 323.685 232.43 326.78 232.283C329.874 232.725 331.643 234.347 331.348 237.737Z" fill="white"/>
<path d="M220.475 367.938C237.658 360.932 245.911 341.317 238.908 324.126C231.905 306.936 212.297 298.68 195.114 305.686C177.93 312.692 169.677 332.307 176.681 349.498C183.684 366.689 203.291 374.945 220.475 367.938Z" fill="#37474F"/>
<path d="M226.385 341.118C220.785 352.323 207.669 358.957 207.669 358.957C207.669 358.957 194.553 352.323 188.953 341.118C184.385 331.83 187.332 321.805 194.553 319.594C205.016 316.498 207.669 334.631 207.669 334.631C207.669 334.631 210.322 316.498 220.785 319.594C228.153 321.805 231.101 331.83 226.385 341.118Z" fill="white"/>
<path d="M262.558 186.079C271.674 148.494 248.608 110.632 211.038 101.513C173.468 92.393 135.622 115.469 126.506 153.054C117.39 190.639 140.456 228.501 178.026 237.62C215.596 246.74 253.442 223.664 262.558 186.079Z" fill="#37474F"/>
<path d="M149.873 214.285C151.789 207.356 153.557 200.869 155.473 194.382C156.063 192.318 155.915 190.696 154.884 188.632C141.326 161.358 159.305 128.482 189.515 124.796C217.368 121.405 240.947 142.34 240.357 170.056C239.915 192.76 220.61 212.368 197.915 213.4C190.105 213.695 182.736 212.368 175.663 209.125C174.484 208.535 172.715 208.535 171.389 208.83C164.315 210.452 157.389 212.368 149.873 214.285ZM160.779 203.67C165.2 202.491 169.031 201.459 172.715 200.574C173.894 200.279 175.515 200.427 176.694 201.016C182.442 203.965 188.336 205.587 194.821 205.734C217.957 206.176 236.526 184.652 232.105 162.095C229.01 146.468 219.431 136.295 204.105 132.757C188.189 129.071 174.779 134.231 165.2 147.352C155.768 160.179 155.621 174.037 163.284 187.895C164.021 189.075 164.168 190.844 163.873 192.318C162.989 196.151 161.81 199.69 160.779 203.67Z" fill="white"/>
<path d="M175.515 150.891C178.61 146.763 182.589 147.647 184.8 152.07C185.684 153.839 185.831 154.429 186.715 156.493C187.894 159.589 187.6 161.653 185.536 163.57C183.915 165.044 184.063 166.223 185.242 167.992C188.631 173.152 193.2 176.986 198.8 179.492C200.568 180.229 201.6 180.082 202.926 178.607C206.905 173.89 206.905 173.89 212.505 176.543C213.094 176.838 213.831 177.133 214.421 177.428C218.694 179.492 219.284 183.325 215.894 186.716C212.358 190.107 208.084 190.991 203.368 189.812C191.431 186.716 182.736 179.197 176.105 169.024C174.042 165.928 172.568 162.685 172.715 158.852C173.01 155.314 173.894 153.102 175.515 150.891Z" fill="white"/>
<path d="M425.158 320.343C443.47 320.343 458.316 305.492 458.316 287.171C458.316 268.851 443.47 254 425.158 254C406.845 254 392 268.851 392 287.171C392 305.492 406.845 320.343 425.158 320.343Z" fill="#FFC727"/>
<g opacity="0.5">
<g opacity="0.5">
<path opacity="0.5" d="M440.632 278.031C440.632 281.717 437.684 284.813 433.853 284.813C430.168 284.813 427.074 281.864 427.074 278.031C427.074 274.345 430.021 271.249 433.853 271.249C437.537 271.397 440.632 274.345 440.632 278.031Z" fill="black"/>
<path opacity="0.5" d="M445.495 296.607V299.113H422.211V296.607C422.211 290.267 427.368 284.96 433.853 284.96C440.189 284.96 445.495 290.267 445.495 296.607Z" fill="black"/>
</g>
</g>
<path d="M423.389 282.159C423.389 285.845 420.442 288.941 416.611 288.941C412.926 288.941 409.832 285.992 409.832 282.159C409.832 278.473 412.779 275.377 416.611 275.377C420.295 275.377 423.389 278.473 423.389 282.159Z" fill="white"/>
<path d="M428.253 300.735V303.241H404.968V300.735C404.968 294.395 410.126 289.088 416.611 289.088C422.947 289.088 428.253 294.248 428.253 300.735Z" fill="white"/>
<path d="M385.212 316.555C387.335 307.603 381.803 298.623 372.854 296.499C363.905 294.374 354.929 299.909 352.806 308.862C350.682 317.814 356.215 326.794 365.164 328.918C374.112 331.042 383.088 325.507 385.212 316.555Z" fill="#455A64"/>
<path d="M362.674 318.242H361.347C360.463 318.242 359.874 317.505 359.874 316.768C359.874 315.883 360.611 315.294 361.347 315.294H363.263L364.147 310.134H362.379C361.495 310.134 360.905 309.397 360.905 308.659C360.905 307.775 361.642 307.185 362.379 307.185H364.589L365.179 303.647C365.326 302.91 365.916 302.32 366.653 302.32C367.684 302.32 368.274 303.205 368.126 304.089L367.537 307.038H372.105L372.695 303.499C372.842 302.762 373.432 302.173 374.316 302.173C375.2 302.173 375.937 303.057 375.789 303.942L375.347 306.89H376.674C377.558 306.89 378.147 307.627 378.147 308.365C378.147 309.249 377.411 309.839 376.674 309.839H374.758L373.874 314.999H375.495C376.379 314.999 376.968 315.736 376.968 316.473C376.968 317.358 376.232 317.947 375.495 317.947H373.284L372.695 321.633C372.547 322.37 371.958 322.96 371.221 322.96C370.189 322.96 369.6 322.075 369.747 321.191L370.337 318.095H365.768L365.179 321.781C365.032 322.37 364.442 323.107 363.558 323.107C362.674 323.107 361.937 322.37 362.084 321.338L362.674 318.242ZM370.926 315.146L371.811 309.986H367.242L366.358 315.146H370.926Z" fill="white"/>
<path d="M153.558 663.225C154.589 660.129 210.737 589.069 214.568 587.742C215.011 587.594 239.032 605.433 239.032 605.433C240.063 606.76 286.632 597.914 286.632 597.914L285.895 653.937L201.305 650.399C201.305 650.399 189.811 656.886 179.2 662.193C172.716 665.437 166.968 668.238 165.347 668.533C161.074 669.712 152.379 666.321 153.558 663.225Z" fill="#AD6359"/>
<path d="M165.347 668.68C166.968 668.238 172.716 665.584 179.2 662.341C189.811 657.033 201.305 650.546 201.305 650.546L220.168 651.283L250.674 604.401C244.189 605.433 239.326 606.023 239.032 605.581C239.032 605.581 215.011 587.742 214.568 587.889C210.737 589.216 154.737 660.277 153.558 663.373C152.379 666.321 161.074 669.712 165.347 668.68Z" fill="white"/>
<path d="M152.968 663.373C154.147 660.277 210.442 589.216 214.421 587.889C215.895 587.299 227.684 594.966 239.032 605.581L202.632 651.283C202.632 651.283 169.621 667.943 165.2 668.975C160.779 670.007 151.937 666.469 152.968 663.373Z" fill="#FFC727"/>
<path d="M156.653 664.552C166.379 652.905 204.547 604.843 213.389 592.607C213.389 592.459 213.389 592.459 213.242 592.607C203.368 603.959 165.495 652.315 156.505 664.405C156.211 664.699 156.505 664.847 156.653 664.552Z" fill="#263238"/>
<path d="M171.242 666.469C173.6 663.667 174.484 659.982 174.042 657.033C173.6 654.232 172.274 651.136 169.768 649.367L169.621 649.514C173.747 653.937 174.484 661.456 171.095 666.321C171.095 666.469 171.242 666.469 171.242 666.469Z" fill="#263238"/>
<path d="M198.358 654.085C202.189 649.367 204.842 642.438 203.368 636.393C203.368 636.098 202.926 636.246 202.926 636.393C201.747 642.438 200.126 647.893 197.768 653.642C197.621 654.085 198.211 654.379 198.358 654.085Z" fill="#263238"/>
<path d="M194.084 656.591C197.916 651.873 200.568 644.944 199.095 638.899C199.095 638.605 198.653 638.752 198.653 638.899C197.474 644.944 195.853 650.399 193.495 656.149C193.2 656.591 193.789 656.886 194.084 656.591Z" fill="#263238"/>
<path d="M189.663 659.097C193.495 654.379 196.147 647.45 194.674 641.406C194.674 641.111 194.232 641.258 194.232 641.406C193.053 647.45 191.432 652.905 189.074 658.655C188.926 659.097 189.368 659.539 189.663 659.097Z" fill="#263238"/>
<path d="M185.389 661.751C189.221 657.033 191.874 650.104 190.4 644.059C190.4 643.765 189.958 643.912 189.958 644.059C188.779 650.104 187.158 655.559 184.8 661.309C184.505 661.751 185.095 662.046 185.389 661.751Z" fill="#263238"/>
<path d="M222.232 604.696C226.505 599.389 218.105 592.754 213.979 598.062C209.705 603.369 217.958 610.003 222.232 604.696Z" fill="#263238"/>
<path d="M207.053 669.27C211.032 668.385 211.474 663.815 210.589 660.719C209.116 655.706 205.726 650.251 201.895 646.713C201.747 646.566 201.747 646.713 201.6 646.713C201.158 646.566 200.568 646.713 200.568 647.303C200.274 652.61 199.242 658.065 200.421 663.373C201.158 666.469 203.368 670.154 207.053 669.27ZM201.6 655.411C201.747 652.758 201.895 650.251 201.895 647.598C203.663 650.399 205.432 653.053 206.758 655.854C207.495 657.181 208.084 658.655 208.526 660.129C209.263 662.488 209.558 670.302 203.958 666.616C201.011 664.7 201.453 658.507 201.6 655.411Z" fill="#263238"/>
<path d="M209.411 633.445C205.432 637.13 203.221 642.29 200.716 646.861C200.421 647.303 200.863 647.745 201.305 647.893C201.305 648.04 201.305 648.04 201.453 648.04C206.611 647.303 212.505 644.649 216.484 641.111C218.989 639.047 221.053 634.919 218.253 632.118C215.6 629.611 211.768 631.381 209.411 633.445ZM214.421 632.855C221.053 632.855 216.484 639.342 214.568 640.816C213.389 641.848 212.063 642.585 210.737 643.322C207.937 644.944 204.989 646.123 202.042 647.598C203.516 645.386 204.695 643.175 206.021 640.963C207.642 638.162 210.737 632.707 214.421 632.855Z" fill="#263238"/>
<path d="M289.284 584.793L327.453 581.845C327.453 581.845 382.568 565.922 414.4 574.178C450.947 583.761 455.958 626.368 418.968 643.47C382.274 660.424 220.758 654.085 220.758 654.085L255.389 602.779C255.389 602.779 308.589 590.248 355.158 592.754L289.284 600.421V584.793Z" fill="#37474F"/>
<path d="M289.726 595.555C295.326 594.671 301.074 594.229 306.821 593.639C312.568 593.049 318.316 592.754 324.211 592.312C335.705 591.575 347.347 591.28 358.842 591.722C359.874 591.722 361.053 591.87 362.084 591.87C362.379 591.87 362.526 591.722 362.821 591.722C363.411 591.575 364 591.427 364.442 591.427C365.474 591.28 366.505 591.133 367.537 590.985C369.747 590.69 371.958 590.543 374.168 590.101C374.316 590.101 374.316 590.248 374.168 590.248C371.958 590.69 369.747 591.28 367.537 591.722C366.947 591.87 366.211 592.017 365.621 592.017C369.895 592.312 374.021 592.754 378.295 593.197C378.442 593.197 378.442 593.491 378.295 593.344C372.547 592.902 366.8 592.754 361.053 592.754C355.305 592.754 349.558 592.754 343.811 592.902C332.168 593.344 320.674 594.081 309.179 595.113C302.695 595.703 296.211 596.293 289.726 596.44C289.284 596.735 289.137 595.703 289.726 595.555Z" fill="#263238"/>
<path d="M237.263 652.905C239.326 649.662 241.242 646.123 243.158 642.733C245.074 639.342 247.137 635.951 249.053 632.56C253.032 625.778 267.179 603.222 268.505 601.6C268.653 601.453 268.8 601.6 268.653 601.747C267.916 603.517 259.074 618.554 257.158 621.798C253.032 628.432 248.905 635.066 244.632 641.701C243.453 643.617 242.126 645.386 240.947 647.303C239.768 649.219 238.442 650.989 237.263 652.905C237.263 653.2 237.116 653.053 237.263 652.905Z" fill="#263238"/>
<path d="M426.779 673.544C425.895 670.448 373.137 596.734 369.453 595.26C369.011 595.112 344.105 611.772 344.105 611.772C343.074 613.099 296.947 602.041 296.947 602.041L295.032 658.064L379.621 658.507C379.621 658.507 390.821 665.583 401.137 671.333C407.474 674.871 413.074 677.967 414.695 678.409C418.968 679.589 427.811 676.64 426.779 673.544Z" fill="#AD6359"/>
<path d="M414.842 678.41C413.221 677.968 407.621 674.872 401.284 671.334C390.968 665.584 379.768 658.507 379.768 658.507L360.905 658.36L332.758 610.003C339.242 611.33 343.958 612.067 344.4 611.773C344.4 611.773 369.305 594.966 369.747 595.261C373.432 596.735 426.189 670.449 427.074 673.545C427.811 676.641 418.968 679.59 414.842 678.41Z" fill="white"/>
<path d="M427.368 673.693C426.337 670.449 373.432 596.882 369.6 595.408C368.126 594.818 356.042 601.895 344.253 611.92L378.442 659.392C378.442 659.392 410.716 677.526 414.989 678.853C419.263 679.885 428.253 676.936 427.368 673.693Z" fill="#FFC727"/>
<path d="M423.684 674.725C414.547 662.635 378.589 612.805 370.484 600.126C370.484 599.978 370.484 599.978 370.632 600.126C380.063 611.92 415.432 662.046 423.979 674.577C423.979 674.872 423.832 675.019 423.684 674.725Z" fill="#263238"/>
<path d="M408.947 675.904C406.737 673.103 406 669.27 406.589 666.321C407.179 663.52 408.505 660.571 411.158 658.802C411.305 658.802 411.305 658.95 411.305 658.95C407.032 663.078 405.853 670.597 409.095 675.757C409.095 675.904 408.947 676.051 408.947 675.904Z" fill="#263238"/>
<path d="M382.421 662.341C378.737 657.475 376.379 650.399 378.295 644.502C378.295 644.207 378.737 644.354 378.737 644.502C379.621 650.694 380.947 656.149 383.158 661.898C383.305 662.341 382.716 662.635 382.421 662.341Z" fill="#263238"/>
<path d="M386.695 664.994C383.011 660.129 380.653 653.053 382.568 647.155C382.568 646.861 383.011 647.008 383.011 647.303C383.895 653.495 385.221 658.95 387.432 664.699C387.432 665.142 386.842 665.437 386.695 664.994Z" fill="#263238"/>
<path d="M390.821 667.795C387.137 662.93 384.779 655.854 386.695 649.957C386.695 649.662 387.137 649.809 387.137 650.104C388.021 656.296 389.347 661.751 391.558 667.501C391.705 667.796 391.116 668.09 390.821 667.795Z" fill="#263238"/>
<path d="M395.095 670.449C391.411 665.584 389.053 658.507 390.968 652.61C390.968 652.315 391.411 652.463 391.411 652.758C392.295 658.95 393.621 664.405 395.832 670.154C395.979 670.597 395.39 670.892 395.095 670.449Z" fill="#263238"/>
<path d="M360.905 611.773C356.926 606.17 365.621 599.978 369.6 605.581C373.579 611.183 364.884 617.375 360.905 611.773Z" fill="#263238"/>
<path d="M380.063 671.481C381.537 666.321 380.8 660.719 380.8 655.411C380.8 654.822 380.211 654.674 379.768 654.822C379.768 654.674 379.621 654.674 379.474 654.822C375.347 658.213 371.811 663.373 370.042 668.385C369.011 671.481 369.305 676.051 373.137 677.083C376.674 678.115 379.179 674.577 380.063 671.481ZM376.084 674.725C370.337 678.115 370.926 670.302 371.811 668.09C372.4 666.616 373.137 665.289 373.874 663.815C375.495 661.014 377.41 658.36 379.179 655.706C379.032 658.36 379.179 660.866 379.179 663.52C379.179 666.616 379.326 672.808 376.084 674.725Z" fill="#263238"/>
<path d="M363.705 639.489C360.758 642.143 362.674 646.418 365.032 648.63C368.863 652.315 374.611 655.117 379.768 656.149C379.916 656.149 379.916 656.149 379.916 656.001C380.358 656.001 380.8 655.411 380.505 654.969C378.147 650.251 376.084 644.944 372.4 641.111C370.189 639.047 366.358 636.983 363.705 639.489ZM375.495 648.63C376.674 650.841 377.853 653.2 379.179 655.411C376.379 653.937 373.432 652.61 370.779 650.841C369.453 649.957 368.126 649.072 366.947 648.04C365.179 646.418 360.905 639.784 367.537 640.079C371.074 640.374 374.021 645.976 375.495 648.63Z" fill="#263238"/>
<path d="M294.884 584.941L256.863 583.909C256.863 583.909 217.663 563.711 185.537 570.64C148.695 578.454 142.8 624.451 169.768 641.406C203.958 662.93 358.547 663.078 358.547 663.078L326.716 605.581C326.716 605.581 275.579 593.344 229.011 593.786L294.442 604.549L294.884 584.941Z" fill="#37474F"/>
<path d="M328.779 609.266C328.779 609.266 328.779 609.119 328.779 608.971C328.779 608.824 328.779 608.824 328.779 608.677C328.779 608.529 328.632 608.234 328.632 608.087C328.484 607.645 328.337 607.35 328.337 606.907C328.189 606.465 328.042 606.17 327.895 605.875C327.747 605.433 327.453 605.138 327.305 604.843C327.305 604.843 327.305 604.843 327.158 604.843C327.158 604.843 327.158 604.843 327.011 604.843C327.011 604.843 327.011 604.843 326.863 604.843C321.263 603.664 282.947 597.177 277.347 596.293C271.6 595.555 265.853 594.818 260.105 594.229C248.611 592.902 237.116 592.165 225.474 592.017C224.442 592.017 223.263 592.017 222.232 592.017C221.937 591.87 221.789 591.87 221.495 591.87C220.905 591.722 220.463 591.575 219.874 591.427C218.842 591.133 217.811 590.985 216.779 590.838C214.568 590.395 212.358 590.101 210.295 589.658C210.147 589.658 210.147 589.806 210.295 589.806C212.505 590.395 214.568 590.985 216.779 591.575C217.368 591.722 218.105 591.87 218.695 592.017C214.421 592.165 210.147 592.312 206.021 592.607C205.874 592.607 205.874 592.754 206.021 592.754C211.768 592.607 217.516 592.607 223.411 592.902C229.158 593.197 234.905 593.491 240.505 593.934C252 594.966 263.495 596.293 274.989 597.767C281.474 598.651 320.379 605.433 326.863 605.875C326.863 605.875 326.863 605.875 327.011 605.875C327.011 606.023 327.158 606.17 327.158 606.318C327.305 606.613 327.453 607.055 327.747 607.35C327.895 607.645 328.042 608.087 328.337 608.382C328.484 608.529 328.484 608.677 328.632 608.824C328.632 608.971 328.779 608.971 328.779 609.119C328.779 609.119 328.926 609.266 328.926 609.414C328.632 609.414 328.779 609.414 328.779 609.266Z" fill="#263238"/>
<path d="M346.611 659.245C344.695 655.854 342.926 652.315 341.158 648.777C339.389 645.239 337.474 641.848 335.705 638.31C332.021 631.381 319.053 608.087 317.726 606.465C317.579 606.318 317.432 606.465 317.579 606.613C318.168 608.382 326.274 623.862 328.189 627.253C331.874 634.182 335.853 640.816 339.684 647.745C340.863 649.662 341.895 651.578 343.074 653.495C344.253 655.411 345.432 657.328 346.463 659.245C346.463 659.539 346.611 659.392 346.611 659.245Z" fill="#263238"/>
<path d="M221.937 427.339L227.684 470.978C227.979 472.305 227.242 473.19 226.063 473.042L204.253 470.536C203.074 470.389 201.747 469.209 201.453 467.882L195.705 424.243C195.411 422.917 196.147 422.032 197.326 422.179L219.137 424.686C220.463 424.833 221.642 426.013 221.937 427.339Z" fill="#37474F"/>
<path d="M219.432 427.045L225.179 470.683C225.474 472.01 224.737 472.895 223.558 472.747L201.747 470.241C200.568 470.094 199.242 468.914 198.947 467.587L193.2 423.949C192.905 422.622 193.642 421.737 194.821 421.885L216.632 424.391C217.811 424.538 219.137 425.718 219.432 427.045Z" fill="#455A64"/>
<path d="M213.242 428.371C213.095 429.403 213.832 430.288 214.863 430.435C215.895 430.583 216.779 429.846 216.926 428.814C217.074 427.782 216.337 426.897 215.305 426.75C214.126 426.455 213.242 427.339 213.242 428.371Z" fill="#263238"/>
<path d="M285.305 496.778C270.126 521.841 238.295 552.949 226.947 553.981C221.495 554.57 211.621 554.718 205.137 547.641C190.842 532.309 180.526 504.592 179.495 489.259C179.053 483.805 206.316 474.959 209.705 479.677C217.663 490.881 225.916 511.963 227.537 511.963C233.432 512.111 255.684 496.778 273.663 485.869C295.032 473.042 291.347 486.753 285.305 496.778Z" fill="#AD6359"/>
<path d="M181.705 461.69C185.537 451.075 188.189 449.011 186.716 438.397C185.832 431.467 189.811 427.782 194.084 433.826C201.011 443.557 198.8 458.299 196.589 463.165L181.705 461.69Z" fill="#AD6359"/>
<path d="M180.232 494.125C180.232 494.125 176.989 478.497 180.084 466.85C182.147 458.742 188.779 441.787 212.653 434.858C218.4 433.237 227.537 435.006 219.284 440.903C213.389 445.178 208.379 446.063 205.432 449.159C205.432 449.159 216.926 452.697 218.253 458.447C218.842 460.953 220.463 468.03 220.905 473.779C220.905 473.779 219.726 474.222 218.105 474.517C218.105 474.517 219.284 479.971 214.568 487.048L180.232 494.125Z" fill="#AD6359"/>
<path d="M183.179 459.479C186.863 456.973 194.526 451.96 202.337 450.043C211.032 447.832 228.274 446.063 229.747 452.402C230.926 457.12 224.295 458.447 224.295 458.447C224.295 458.447 231.516 459.184 231.663 463.607C231.811 467.735 226.653 468.325 226.653 468.325C226.653 468.325 230.926 469.504 230.337 473.485C229.6 478.202 220.611 474.959 215.6 478.939C214.568 479.824 183.179 459.479 183.179 459.479Z" fill="#AD6359"/>
<path d="M203.221 459.479C207.053 457.71 216.632 455.941 224.295 458.152C224.442 458.152 224.589 458.299 224.295 458.299C215.305 457.71 206.758 458.889 203.221 459.479C203.074 459.479 203.074 459.479 203.221 459.479Z" fill="#263238"/>
<path d="M205.579 468.177C208.968 466.998 218.989 465.523 226.8 468.177C226.947 468.177 226.947 468.325 226.8 468.325C217.368 467.145 209.263 467.735 205.579 468.177Z" fill="#263238"/>
<path d="M266.147 524.2L234.021 508.425C234.021 508.425 264.674 488.375 278.968 482.33C293.853 476.138 298.863 479.529 286.632 497.073C274.4 514.617 266.147 524.2 266.147 524.2Z" fill="#FFC727"/>
<path d="M271.6 517.418L271.453 517.566C269.537 516.386 267.621 515.354 265.558 514.322C263.642 513.438 261.579 512.553 259.516 511.963C259.368 511.963 259.221 511.816 259.074 511.816C258.926 511.816 258.632 511.669 258.484 511.669C255.979 511.079 253.474 511.079 250.968 511.521C248.905 511.963 246.842 512.701 245.074 513.585L244.632 513.438C246.695 512.406 248.758 511.521 250.968 511.226C253.474 510.784 256.126 510.931 258.632 511.374C258.926 511.374 259.221 511.521 259.516 511.521C259.663 511.521 259.811 511.669 259.958 511.669C262.021 512.258 263.937 512.995 265.853 514.027C267.768 515.207 269.832 516.239 271.6 517.418ZM291.347 488.08C289.137 489.259 286.926 490.881 285.158 492.65C283.242 494.419 281.768 496.631 280.589 498.842C279.263 501.201 278.232 503.707 277.347 506.214C277.347 506.361 277.2 506.361 277.2 506.509C276.463 508.72 275.726 510.931 274.989 513.143C275.284 512.848 275.579 512.406 275.726 512.111C276.316 510.194 276.905 508.425 277.495 506.509C277.495 506.361 277.495 506.361 277.642 506.214C278.526 503.707 279.558 501.201 280.737 498.99C281.916 496.778 283.537 494.714 285.305 492.945C287.074 491.176 289.137 489.554 291.347 488.375C291.495 488.227 291.642 488.227 291.937 488.08C291.937 487.933 292.084 487.785 292.084 487.638C291.937 487.785 291.642 487.933 291.347 488.08ZM277.642 506.214C277.495 506.214 277.347 506.214 277.2 506.066C274.695 505.624 272.189 505.624 269.832 506.214C267.326 506.803 264.968 507.983 262.758 509.31C261.579 510.047 260.547 510.784 259.368 511.669C259.221 511.816 259.221 511.816 259.074 511.963C258.189 512.701 257.453 513.438 256.716 514.175C255.537 515.354 254.505 516.681 253.621 518.008L253.916 518.155C254.8 516.829 255.832 515.649 257.011 514.47C257.895 513.585 258.632 512.848 259.663 512.111C259.811 511.963 259.811 511.963 259.958 511.816C260.989 511.079 262.021 510.342 263.053 509.605C265.263 508.278 267.621 507.098 269.979 506.656C272.337 506.066 274.842 506.066 277.2 506.509C277.347 506.509 277.495 506.509 277.495 506.509C277.495 506.509 277.495 506.509 277.642 506.509C278.232 506.656 278.968 506.803 279.705 506.951C279.853 506.803 279.853 506.803 279.853 506.656C279.116 506.509 278.379 506.361 277.642 506.214Z" fill="white"/>
<path d="M266.737 517.566C266 517.123 265.263 516.681 264.526 516.386C263.789 515.944 262.905 515.502 262.168 515.207C260.547 514.322 258.926 513.585 257.453 512.848C254.211 511.226 251.116 509.605 247.874 508.13C246.989 507.688 246.105 507.246 245.221 506.951C244.337 506.509 243.305 506.214 242.421 505.771C242.421 505.771 242.274 505.771 242.421 505.919C243.158 506.361 243.895 506.803 244.779 507.246C245.516 507.688 246.4 508.13 247.137 508.573C248.758 509.31 250.379 510.194 251.853 510.931C254.947 512.406 258.189 514.027 261.284 515.502C262.168 515.944 263.053 516.386 263.937 516.681C264.821 516.829 265.705 517.418 266.737 517.566C266.737 517.566 266.737 517.713 266.737 517.566Z" fill="#263238"/>
<path opacity="0.1" d="M286.632 497.073C274.4 514.765 266.147 524.347 266.147 524.347L251.853 517.271L291.495 479.824C295.179 480.856 294 486.311 286.632 497.073Z" fill="black"/>
<path d="M249.347 584.498C250.674 586.12 338.653 585.088 339.095 584.498C340.421 583.024 324.947 507.098 309.621 483.952C304.463 476.138 287.811 474.517 282.063 482.183C265.411 503.855 248.316 583.171 249.347 584.498Z" fill="#FFC727"/>
<path d="M326.863 528.181C325.095 529.802 323.179 531.129 321.263 532.309C319.053 533.488 316.547 534.52 314.042 535.11C311.537 535.699 308.884 535.847 306.379 535.699C303.874 535.405 301.221 534.962 298.863 534.078C296.505 533.193 294.147 532.161 291.789 530.982C289.284 529.655 286.926 528.181 284.568 526.559C284.421 526.559 284.274 526.411 284.126 526.264C282.358 525.085 280.589 523.905 278.821 522.726C277.053 521.546 275.284 520.367 273.516 519.187C273.368 519.187 273.368 519.04 273.221 518.893C271.158 517.566 269.242 516.386 267.032 515.354C267.032 515.354 267.032 515.207 267.179 515.059C269.242 516.239 271.305 517.418 273.368 518.745C273.516 518.745 273.663 518.893 273.663 519.04C275.432 520.219 277.2 521.399 278.968 522.578C280.737 523.758 282.505 525.085 284.274 526.264C284.421 526.411 284.568 526.411 284.716 526.559C284.863 526.706 285.158 526.854 285.305 527.001C287.516 528.328 289.726 529.655 291.937 530.982C294.147 532.161 296.505 533.193 299.011 534.078C301.368 534.962 303.874 535.552 306.526 535.699C309.032 535.847 311.684 535.699 314.189 535.11C316.695 534.52 319.053 533.488 321.263 532.309C323.179 531.277 324.947 530.097 326.421 528.623C326.568 528.623 326.568 528.475 326.716 528.328C326.863 528.328 326.863 528.181 326.863 528.181C326.863 528.328 326.863 528.328 326.863 528.328C326.863 528.033 326.863 528.033 326.863 528.181ZM310.653 485.426C309.179 485.131 307.705 484.837 306.232 484.689C305.937 484.689 305.642 484.689 305.495 484.689C305.347 484.689 305.053 484.689 304.905 484.689C302.842 484.542 300.632 484.689 298.568 485.279C296.063 485.869 293.705 486.753 291.347 488.08C289.137 489.259 286.926 490.881 285.158 492.65C283.242 494.419 281.768 496.631 280.589 498.842C279.263 501.201 278.232 503.707 277.347 506.214C277.347 506.361 277.2 506.361 277.2 506.509C276.463 508.72 275.726 511.079 274.989 513.29C274.4 515.059 273.811 516.829 273.221 518.45C273.221 518.45 273.221 518.598 273.074 518.598C271.895 521.546 270.568 524.495 268.653 527.001C267.474 528.623 266 530.097 264.379 531.424C264.232 531.571 264.084 531.571 263.937 531.719C263.642 531.866 263.347 532.161 263.053 532.309C262.463 532.751 261.726 533.193 260.989 533.635C260.989 533.783 260.842 534.078 260.842 534.225C261.726 533.783 262.463 533.193 263.347 532.751C263.789 532.456 264.084 532.161 264.526 531.866C264.674 531.719 264.821 531.719 264.968 531.571C266.442 530.392 267.768 528.918 268.947 527.296C270.863 524.642 272.337 521.841 273.368 518.745C273.368 518.745 273.368 518.598 273.516 518.598C274.253 516.829 274.695 515.059 275.284 513.29C276.021 511.079 276.611 508.72 277.495 506.509C277.495 506.361 277.495 506.361 277.642 506.214C278.526 503.707 279.558 501.201 280.737 498.99C281.916 496.778 283.537 494.714 285.305 492.945C287.074 491.176 289.137 489.554 291.347 488.375C293.558 487.048 295.916 486.163 298.421 485.574C300.337 485.131 302.4 484.837 304.463 484.984C304.611 484.984 304.905 484.984 305.053 484.984C305.347 484.984 305.789 484.984 306.084 484.984C307.558 485.131 309.179 485.426 310.653 485.721C310.653 485.574 310.653 485.574 310.653 485.426ZM308.147 482.183C306.968 482.92 305.937 483.805 304.905 484.689C304.758 484.689 304.758 484.837 304.611 484.984C304.168 485.426 303.726 485.869 303.284 486.311C301.516 488.227 300.042 490.439 298.863 492.65C296.505 497.221 295.326 502.381 294 507.246C293.558 509.015 292.968 510.784 292.379 512.553C292.379 512.701 292.379 512.701 292.379 512.701C291.347 515.797 290.021 518.745 288.253 521.399C287.074 523.021 285.747 524.642 284.274 525.969C284.274 525.969 284.126 525.969 284.126 526.117C283.832 526.411 283.389 526.706 283.095 527.001C281.032 528.623 278.821 529.802 276.463 530.687C274.105 531.571 271.6 532.014 268.947 532.014C267.621 532.014 266.295 531.866 264.968 531.719C264.821 531.719 264.526 531.719 264.379 531.571C263.495 531.424 262.758 531.277 261.874 531.129C261.874 531.277 261.874 531.277 261.726 531.424C262.463 531.571 263.2 531.719 263.937 531.866C264.084 531.866 264.379 532.014 264.526 532.014C266 532.309 267.474 532.456 268.947 532.456C271.6 532.456 274.105 532.161 276.611 531.129C278.968 530.097 281.326 528.918 283.389 527.443C283.832 527.149 284.274 526.854 284.568 526.411C284.568 526.411 284.716 526.411 284.716 526.264C286.189 524.937 287.516 523.463 288.695 521.694C290.463 519.04 291.789 516.091 292.821 512.995V512.848C293.411 511.079 294 509.31 294.442 507.393C295.768 502.381 296.947 497.368 299.305 492.798C300.484 490.586 301.811 488.375 303.579 486.458C304.021 485.869 304.611 485.426 305.2 484.837C305.347 484.689 305.347 484.689 305.495 484.689C306.379 483.805 307.411 483.067 308.442 482.33C308.295 482.33 308.147 482.183 308.147 482.183ZM326.863 528.181V528.033C326.716 528.033 326.716 528.033 326.568 528.033H326.421C323.916 527.886 321.263 527.443 318.905 526.706C316.4 525.969 314.042 524.937 311.832 523.905C309.474 522.726 307.263 521.546 305.053 520.219C302.842 518.893 300.632 517.566 298.568 516.239C296.8 515.059 294.884 514.027 293.116 512.848C292.968 512.701 292.821 512.701 292.674 512.553C290.168 511.079 287.811 509.752 285.158 508.573C282.8 507.541 280.442 506.656 277.937 506.214C277.937 506.214 277.937 506.214 277.789 506.214C277.642 506.214 277.642 506.214 277.495 506.214C275.137 505.771 272.632 505.771 270.274 506.361C270.274 506.509 270.126 506.656 270.126 506.803C272.484 506.214 274.989 506.214 277.347 506.656C277.495 506.656 277.642 506.656 277.642 506.656C277.642 506.656 277.642 506.656 277.789 506.656C280.295 507.098 282.653 507.983 285.011 508.867C287.663 510.047 290.168 511.374 292.526 512.701C292.674 512.701 292.821 512.848 292.968 512.995C294.884 514.027 296.653 515.207 298.421 516.239C302.842 518.893 307.116 521.694 311.832 523.905C314.189 525.085 316.547 525.969 318.905 526.854C321.411 527.591 323.916 528.033 326.421 528.181C326.421 528.181 326.716 528.181 326.863 528.181ZM332.611 550.147C330.253 551.032 328.042 552.211 325.979 553.538C321.705 556.487 318.168 560.32 314.632 564.006C313.305 565.333 312.126 566.659 310.653 567.839L310.505 567.986C308.147 570.198 305.642 572.114 302.695 573.589C300.484 574.768 297.979 575.505 295.474 575.947H295.326C292.821 576.242 290.316 576.242 287.811 575.947C285.747 575.653 283.832 575.063 282.063 574.178C281.916 574.178 281.768 574.031 281.621 573.883C281.326 573.736 281.032 573.589 280.737 573.441C278.526 572.114 276.463 570.64 274.547 568.871C271.305 565.922 268.358 562.679 264.968 559.73C264.821 559.583 264.821 559.583 264.674 559.583C264.232 559.141 263.789 558.846 263.2 558.403C261.137 556.782 258.926 555.455 256.568 554.423C256.274 554.275 255.979 554.128 255.684 553.981C255.684 553.981 255.537 553.981 255.537 553.833V553.981C255.832 554.128 256.274 554.275 256.568 554.423C258.926 555.455 261.137 556.782 263.053 558.403C263.495 558.846 263.937 559.141 264.379 559.583C264.526 559.73 264.526 559.73 264.674 559.73C268.063 562.679 271.011 565.922 274.253 568.871C276.168 570.64 278.232 572.262 280.442 573.441C280.737 573.589 280.884 573.736 281.179 573.736C281.326 573.883 281.474 573.883 281.621 574.031C283.537 574.915 285.6 575.653 287.811 575.947C290.316 576.242 292.968 576.242 295.621 575.947H295.768C298.274 575.505 300.632 574.768 302.989 573.589C305.937 572.114 308.442 570.198 310.8 567.986L310.947 567.839C312.274 566.512 313.6 565.185 314.926 563.858C318.463 560.173 322 556.339 326.126 553.391C328.189 552.064 330.4 550.885 332.611 550C332.758 550.442 332.611 550.295 332.611 550.147ZM318.021 580.665C316.695 578.454 315.516 576.242 314.189 574.031C313.158 572.114 312.126 570.345 310.947 568.429C310.8 568.281 310.8 568.134 310.653 567.986C309.179 565.48 307.705 563.121 305.937 560.91C304.611 559.141 303.137 557.519 301.516 556.045C301.368 555.897 301.368 555.897 301.221 555.75C301.074 555.602 300.926 555.455 300.632 555.307C298.568 553.686 296.358 552.359 293.853 551.622C291.347 550.885 288.695 550.737 286.189 550.885C283.537 551.032 281.032 551.474 278.526 552.211C277.642 552.506 276.905 552.801 276.021 553.096C275.874 553.096 275.726 553.243 275.579 553.243C271.747 554.865 268.358 557.077 264.968 559.435C264.821 559.435 264.821 559.583 264.674 559.583L264.526 559.73C260.547 562.679 256.568 565.627 252.295 567.986C252.295 567.986 252.295 567.986 252.147 567.986V568.134C252.147 568.134 252.147 568.134 252.147 568.281C252.147 568.281 252.147 568.281 252.295 568.281C252.295 568.281 252.442 568.281 252.442 568.134C256.863 565.775 260.842 562.679 264.821 559.878L264.968 559.73C265.116 559.73 265.116 559.583 265.263 559.583C268.653 557.224 272.337 554.865 276.168 553.243C276.316 553.243 276.463 553.096 276.611 553.096C277.347 552.801 278.084 552.506 278.821 552.359C281.326 551.622 283.832 551.179 286.337 551.032C288.842 550.885 291.495 551.032 293.853 551.769C296.358 552.506 298.568 553.686 300.484 555.307C300.632 555.455 300.779 555.602 300.926 555.75C301.074 555.897 301.074 555.897 301.221 556.045C302.842 557.519 304.316 559.141 305.642 560.91C307.411 563.121 308.884 565.48 310.358 567.986C310.505 568.134 310.505 568.281 310.653 568.429C311.684 570.198 312.863 572.114 313.895 574.031C315.958 577.717 318.021 581.55 320.379 585.088H320.526C319.789 583.614 318.905 582.139 318.021 580.665ZM297.979 579.928C297.242 578.749 296.505 577.569 295.768 576.39C295.621 576.242 295.621 576.095 295.474 575.947C294.884 575.063 294.442 574.178 293.853 573.294C292.674 571.525 291.642 569.608 290.463 567.839C290.316 567.691 290.316 567.544 290.168 567.397C288.695 565.038 286.926 562.679 285.158 560.467C283.537 558.551 281.621 556.634 279.558 555.16C278.526 554.423 277.495 553.833 276.463 553.243C276.316 553.243 276.168 553.096 276.021 553.096C274.989 552.654 273.811 552.211 272.632 551.917C270.126 551.327 267.474 551.327 264.968 551.474C262.463 551.622 259.811 552.211 257.453 553.096C256.863 553.391 256.126 553.538 255.537 553.833C255.537 553.981 255.537 553.981 255.389 554.128V554.275C255.389 554.275 255.389 554.275 255.537 554.275H255.684C256.274 553.981 256.863 553.686 257.6 553.538C259.958 552.654 262.463 552.064 265.116 551.917C267.621 551.769 270.274 551.769 272.632 552.359C273.663 552.654 274.695 552.949 275.579 553.391C275.726 553.391 275.874 553.538 276.021 553.538C277.2 554.128 278.379 554.718 279.411 555.602C281.474 557.077 283.242 558.993 285.011 560.91C286.926 563.121 288.547 565.48 290.021 567.839C290.168 567.986 290.168 568.134 290.316 568.281C291.495 570.05 292.674 571.819 293.705 573.736C294.295 574.621 294.737 575.505 295.326 576.39C295.474 576.537 295.474 576.685 295.621 576.832C297.537 579.781 299.453 582.877 301.516 585.678H301.663C300.484 583.466 299.305 581.697 297.979 579.928ZM332.463 549.263C330.695 548.378 328.926 547.789 327.011 547.494C324.505 547.051 321.853 546.904 319.347 547.051C316.695 547.199 314.189 547.789 311.832 548.673C309.474 549.558 307.116 550.885 305.053 552.506C303.726 553.538 302.547 554.57 301.368 555.602C301.221 555.602 301.221 555.75 301.221 555.75C298.716 558.109 296.505 560.762 294.295 563.269C293.116 564.595 291.789 566.07 290.463 567.249L290.316 567.397C287.958 569.608 285.6 571.819 282.8 573.294C282.505 573.441 282.211 573.589 281.916 573.736C281.768 573.883 281.621 573.883 281.474 573.883C279.705 574.768 277.642 575.358 275.726 575.8C273.221 576.242 270.716 576.39 268.063 576.242C265.558 576.095 263.053 575.21 260.842 574.178C258.632 572.999 256.421 571.525 254.505 569.903C253.768 569.313 253.179 568.723 252.442 568.134C252.442 568.134 252.442 568.134 252.442 568.281C252.442 568.429 252.442 568.429 252.442 568.576C253.032 569.166 253.768 569.755 254.358 570.198C256.274 571.819 258.484 573.441 260.695 574.621C263.053 575.8 265.558 576.685 268.063 576.832C270.716 576.979 273.221 576.979 275.726 576.537C277.937 576.095 280 575.358 281.916 574.473C282.063 574.473 282.211 574.326 282.358 574.326C282.653 574.178 282.8 574.178 282.947 574.031C285.747 572.409 288.253 570.345 290.463 568.134L290.611 567.986C291.937 566.659 293.263 565.185 294.442 563.858C296.8 561.205 299.011 558.698 301.368 556.339C301.516 556.192 301.516 556.192 301.516 556.192C302.695 555.013 303.874 553.981 305.053 553.096C307.116 551.622 309.326 550.295 311.684 549.41C314.042 548.526 316.547 547.936 319.053 547.789C321.558 547.494 324.211 547.641 326.716 548.083C328.632 548.378 330.547 548.968 332.316 549.853C332.463 549.558 332.463 549.41 332.463 549.263Z" fill="white"/>
<path d="M318.905 488.227C355.305 519.187 387.579 560.467 383.6 572.851C379.474 585.973 352.211 599.389 328.632 601.01C323.768 601.305 311.095 565.48 316.105 564.153C319.937 563.121 337.621 559.288 339.832 556.929C341.305 555.308 315.663 519.482 308 499.137C300.337 478.055 309.179 479.971 318.905 488.227Z" fill="#AD6359"/>
<path d="M326.126 563.711C326.126 563.711 311.537 564.301 301.958 565.185C296.653 565.627 287.516 567.249 283.832 569.461C278.232 572.704 256.716 589.658 260.695 594.966C264.379 599.831 270.568 592.902 270.568 592.902C270.568 592.902 262.905 599.831 268.063 603.369C273.221 607.055 280.589 597.325 280.589 597.325C280.589 597.325 272.042 604.106 277.789 607.497C282.8 610.446 292.526 600.126 292.526 600.126C292.526 600.126 282.8 606.17 287.516 609.709C292.821 613.542 309.326 599.978 309.326 599.978C321.705 602.19 329.516 601.747 338.358 599.831C339.979 599.241 326.126 563.711 326.126 563.711Z" fill="#AD6359"/>
<path d="M278.084 599.536C278.674 598.799 279.263 598.062 280 597.325C281.179 595.85 282.358 594.523 283.684 593.197C285.011 591.87 286.337 590.69 287.811 589.511C289.284 588.331 290.905 587.152 292.379 585.973C292.526 585.825 292.674 585.973 292.526 586.12C291.053 587.299 289.726 588.774 288.4 590.101C287.074 591.427 285.747 592.754 284.421 594.081C283.095 595.408 281.768 596.587 280.442 597.914C279.853 598.504 279.116 599.241 278.526 599.831C277.937 600.421 277.347 601.158 276.758 601.6C276.758 601.6 276.611 601.6 276.611 601.453C277.053 600.715 277.642 600.126 278.084 599.536Z" fill="#263238"/>
<path d="M268.947 594.229C269.684 592.754 274.4 587.594 275.726 586.267C278.232 583.761 280.884 581.55 283.832 579.781C283.979 579.781 284.126 579.928 283.979 579.928C281.474 582.434 278.968 584.793 276.463 587.152C275.284 588.331 269.832 593.934 269.242 594.376C269.095 594.523 268.947 594.376 268.947 594.229Z" fill="#263238"/>
<path d="M286.632 604.696C287.516 603.369 291.937 598.504 293.116 597.325C294.295 596.293 299.6 592.459 301.368 591.575C301.516 591.575 301.663 591.722 301.516 591.722C299.011 593.786 296.358 595.85 293.853 598.209C292.674 599.241 288.105 603.959 286.926 604.843C286.632 604.991 286.484 604.843 286.632 604.696Z" fill="#263238"/>
<path d="M321.558 529.95L356.189 520.957C356.189 520.957 330.253 495.009 317.432 486.311C304.168 477.17 298.568 479.529 306.968 499.137C315.516 519.04 321.558 529.95 321.558 529.95Z" fill="#FFC727"/>
<path d="M325.095 492.061C323.768 491.176 322.295 490.291 320.821 489.554C318.611 488.375 316.253 487.195 313.747 486.311C311.389 485.426 308.737 484.837 306.232 484.689C305.937 484.689 305.642 484.689 305.495 484.689C305.347 484.689 305.053 484.689 304.905 484.689C304.316 484.689 303.726 484.689 303.137 484.689C303.137 484.837 303.137 484.837 303.137 484.984C303.579 484.984 304.168 484.984 304.611 484.984C304.758 484.984 305.053 484.984 305.2 484.984C305.495 484.984 305.937 484.984 306.232 484.984C308.737 485.131 311.242 485.721 313.747 486.606C316.105 487.49 318.463 488.522 320.821 489.702C322.589 490.586 324.358 491.618 325.979 492.65C325.537 492.503 325.242 492.355 325.095 492.061ZM308.884 481.593C307.411 482.478 306.084 483.51 304.905 484.542C304.758 484.542 304.758 484.689 304.611 484.837C304.168 485.279 303.726 485.721 303.284 486.163L303.137 486.311C303.137 486.458 303.137 486.753 303.137 486.901C303.284 486.753 303.432 486.606 303.579 486.458C304.021 485.869 304.611 485.426 305.2 484.837C305.347 484.689 305.347 484.689 305.495 484.689C306.674 483.657 308 482.625 309.326 481.741C309.179 481.741 309.032 481.741 308.884 481.593ZM350 514.765C349.116 516.239 348.084 517.713 346.758 519.04C344.99 520.957 343.074 522.578 340.863 523.905C339.39 524.79 337.916 525.527 336.442 526.117L338.505 525.527C339.389 525.085 340.274 524.642 341.158 524.053C343.368 522.726 345.432 521.104 347.2 519.187C348.379 517.861 349.558 516.386 350.442 514.912C350.147 515.059 350 514.912 350 514.765Z" fill="white"/>
<path d="M338.505 504.002C338.211 505.034 337.768 506.066 337.474 506.951C335.853 511.816 334.526 516.829 332.021 521.399C330.695 523.61 329.221 525.822 327.453 527.591C327.305 527.738 327.158 527.886 327.158 527.886C328.189 527.886 329.221 527.886 330.253 527.738L328.779 528.181C328.189 528.181 327.6 528.181 327.011 528.181C326.716 528.475 326.568 528.623 326.274 528.77L325.389 529.065C325.684 528.77 326.126 528.475 326.421 528.181C324.358 528.033 322.295 527.738 320.232 527.296C320.232 527.149 320.084 527.149 320.084 527.001C322.147 527.591 324.358 527.886 326.421 528.033H326.568C326.716 527.886 327.011 527.591 327.158 527.443C328.926 525.674 330.547 523.61 331.726 521.399C334.232 516.976 335.558 511.963 337.179 507.098C337.474 506.066 337.916 504.887 338.211 503.855C338.358 503.855 338.505 503.855 338.505 504.002Z" fill="white"/>
<path d="M322.442 523.463C323.179 523.168 324.063 523.021 324.947 522.726C325.832 522.431 326.568 522.283 327.453 521.989C329.221 521.546 330.842 521.104 332.611 520.514C336 519.63 339.537 518.745 342.926 517.861C343.811 517.566 344.842 517.418 345.726 517.123C346.758 516.976 347.789 516.829 348.821 516.534C348.821 516.534 348.968 516.681 348.821 516.681C347.937 516.976 347.2 517.271 346.316 517.566C345.432 517.861 344.547 518.008 343.663 518.303C341.895 518.745 340.274 519.187 338.505 519.63C335.116 520.514 331.726 521.399 328.337 522.136C327.453 522.431 326.421 522.578 325.537 522.726C324.505 523.021 323.474 523.315 322.442 523.463C322.295 523.463 322.442 523.463 322.442 523.463Z" fill="#263238"/>
<path d="M309.621 508.867C309.621 508.867 309.621 508.72 309.621 508.867C310.653 509.899 311.537 510.931 312.274 512.111C311.979 511.521 311.684 510.931 311.537 510.342C310.653 508.425 309.916 506.509 309.032 504.739C309.032 504.739 309.032 504.592 309.179 504.739C310.8 507.983 312.716 511.079 314.337 514.322C315.958 517.566 317.579 520.809 319.053 524.053C319.937 525.822 320.821 528.181 321.705 529.95C322.737 529.802 324.063 529.507 325.095 529.36C325.242 529.36 325.242 529.507 325.095 529.507C323.916 529.802 322.59 530.392 321.411 530.539C321.263 530.539 315.516 519.04 313.011 513.585C311.684 511.963 310.653 510.342 309.621 508.867Z" fill="#263238"/>
<path d="M287.221 496.189C292.232 497.663 301.221 490.439 305.053 484.394C305.347 483.952 304.905 479.382 304.611 473.927C304.463 470.536 304.463 466.85 304.611 463.459C304.611 462.722 282.8 467.44 282.8 467.44C282.8 467.44 284.568 474.664 284.126 480.709C284.126 481.151 283.979 481.741 283.832 482.035C283.832 482.035 283.832 482.183 283.832 482.33C283.389 484.837 282.358 494.714 287.221 496.189Z" fill="#AD6359"/>
<path d="M303.284 463.312C301.958 469.062 297.537 482.773 286.189 482.478C285.453 482.478 284.716 482.33 283.979 482.183C283.979 482.035 283.979 482.035 283.979 481.888C284.126 481.446 284.126 481.003 284.274 480.561C284.568 474.517 282.947 467.293 282.947 467.293C282.947 467.293 298.568 463.902 303.284 463.312Z" fill="#263238"/>
<path d="M307.411 438.102C309.326 445.768 304.316 467.587 298.716 472.305C290.463 479.087 277.642 479.087 272.042 469.357C266.589 459.921 273.663 431.615 280 427.487C289.137 421.295 304.463 426.602 307.411 438.102Z" fill="#AD6359"/>
<path d="M307.411 438.102C309.326 445.768 304.316 467.587 298.716 472.305C290.463 479.087 277.642 479.087 272.042 469.357C266.589 459.921 273.663 431.615 280 427.487C289.137 421.295 304.463 426.602 307.411 438.102Z" fill="#AD6359"/>
<path d="M284.863 450.781L285.011 450.928C284.568 452.402 284.421 454.171 285.6 454.909V455.056C283.979 454.319 284.274 452.107 284.863 450.781Z" fill="#263238"/>
<path d="M286.632 449.454C288.989 449.749 288.105 454.614 285.895 454.319C283.684 454.024 284.568 449.159 286.632 449.454Z" fill="#263238"/>
<path d="M276.611 449.159C276.611 449.159 276.463 449.306 276.611 449.159C276.316 450.781 275.726 452.402 274.253 452.697V452.845C276.021 452.845 276.611 450.633 276.611 449.159Z" fill="#263238"/>
<path d="M275.579 447.39C273.221 446.8 272.189 451.518 274.4 452.107C276.463 452.697 277.495 447.979 275.579 447.39Z" fill="#263238"/>
<path d="M289.432 445.768C288.842 445.621 288.253 445.326 287.516 445.031C286.779 444.736 286.189 444.589 285.747 443.999C285.453 443.704 285.6 442.967 285.895 442.819C286.632 442.23 287.663 442.23 288.4 442.525C289.284 442.819 290.021 443.262 290.611 444.146C291.2 444.883 290.316 445.915 289.432 445.768Z" fill="#263238"/>
<path d="M274.105 444.883C274.842 444.883 275.432 444.736 276.168 444.736C276.905 444.736 277.495 444.736 278.232 444.146C278.526 443.851 278.674 443.262 278.379 442.967C277.789 442.082 276.905 441.935 276.021 442.082C274.989 442.082 274.253 442.377 273.516 443.114C272.632 443.704 273.221 444.883 274.105 444.883Z" fill="#263238"/>
<path d="M284.863 464.934C284.421 465.229 283.979 465.671 283.389 465.523C282.8 465.523 282.358 465.081 281.916 464.786H281.768C282.063 465.376 282.8 465.966 283.537 465.966C284.274 466.113 284.716 465.671 284.863 464.934C284.863 464.934 285.011 464.934 284.863 464.934Z" fill="#263238"/>
<path d="M284.126 460.216C283.095 461.395 281.768 461.838 280.295 461.838C279.705 461.838 279.116 461.69 278.526 461.543C278.379 461.543 278.232 461.543 278.232 461.395C278.084 461.395 278.084 461.395 277.937 461.248C277.789 461.248 277.642 461.101 277.642 460.806V460.658V460.511C277.789 459.331 278.232 457.71 278.232 457.71C277.789 457.857 275.432 458.447 275.579 457.857C276.758 452.992 278.084 447.537 280.442 442.967C280.442 442.819 280.737 442.967 280.737 443.114C279.705 447.832 277.937 452.402 276.905 457.12C277.642 456.973 278.821 456.678 279.411 456.825C279.558 456.973 278.526 460.069 278.526 460.658C280.442 461.248 281.916 460.953 283.979 460.069C284.126 460.069 284.274 460.069 284.126 460.216Z" fill="#263238"/>
<path d="M279.263 461.101C279.263 461.101 280 462.722 281.326 463.459C281.768 463.754 282.358 463.902 282.947 463.902C284.126 463.754 284.421 462.722 284.421 461.69C284.421 460.953 284.126 460.216 284.126 460.216C284.126 460.216 282.063 461.543 279.263 461.101Z" fill="#263238"/>
<path d="M281.326 463.459C281.768 463.754 282.358 463.902 282.947 463.902C284.126 463.754 284.421 462.722 284.421 461.69C283.095 461.543 281.621 462.28 281.326 463.459Z" fill="#FF97B8"/>
<path opacity="0.2" d="M306.526 454.171C305.2 453.582 302.842 447.832 301.811 445.621C300.779 443.262 302.4 432.647 302.842 430.288C305.053 432.352 306.674 435.006 307.411 437.954C308.442 441.345 307.853 447.685 306.526 454.171Z" fill="#263238"/>
<path d="M282.947 434.563C284.274 436.922 286.632 438.397 289.284 438.544C291.937 438.691 294.737 437.365 296.211 435.153H296.358C294.884 437.512 292.232 439.281 289.432 439.134C286.632 438.986 284.126 437.07 282.947 434.563C282.653 434.416 282.8 434.416 282.947 434.563Z" fill="#263238"/>
<path d="M294.589 417.462C298.863 418.494 302.4 421.737 303.432 424.981C304.021 427.045 303.726 428.814 303.137 430.583H302.989C303.874 427.634 303.137 423.949 300.337 421.295C297.684 418.641 293.853 417.314 290.021 417.904C288.105 418.199 286.337 419.083 285.305 420.263C285.158 420.41 284.863 420.263 285.011 420.115C286.632 417.757 290.611 416.577 294.589 417.462Z" fill="#263238"/>
<path d="M267.179 421.737C268.358 419.673 270.126 418.199 272.337 417.462C275.284 416.43 278.379 417.167 281.326 418.199C281.474 418.199 281.326 418.346 281.326 418.346C278.821 417.609 276.168 416.872 273.663 417.609C271.6 418.199 269.537 419.526 268.358 421.295C265.705 424.981 266.295 430.435 269.832 433.531C271.747 435.301 274.547 436.038 277.053 435.743C277.2 435.743 277.2 435.89 277.053 435.89C272.337 436.48 267.474 433.384 266.442 428.666C265.853 426.455 266 423.801 267.179 421.737Z" fill="#263238"/>
<path d="M308 442.525C308 442.525 313.747 435.595 311.095 430.288C309.621 427.339 303.137 426.307 303.137 426.307C303.137 426.307 301.811 422.179 296.653 419.821C291.495 417.462 284.274 419.378 284.274 419.378C284.274 419.378 279.705 415.398 274.253 417.167C266.737 419.673 265.411 430.141 271.6 434.858C275.874 438.102 283.242 435.153 283.242 435.153C283.832 435.301 289.432 440.461 295.474 435.743C295.474 435.743 298.716 440.018 302.695 438.249C302.842 438.397 303.874 442.377 308 442.525Z" fill="#263238"/>
<path d="M301.811 455.793C301.811 455.793 307.263 449.011 310.358 451.075C313.453 452.992 309.032 463.165 305.2 464.344C301.368 465.523 300.189 461.985 300.189 461.985L301.811 455.793Z" fill="#AD6359"/>
<path d="M309.032 453.877C309.179 453.877 309.179 453.877 309.032 453.877C306.379 454.909 304.758 457.267 303.579 459.774C304.463 458.889 305.495 458.447 306.821 459.479C306.821 459.479 306.821 459.626 306.674 459.626C305.642 459.331 304.758 459.479 304.021 460.216C303.432 460.806 302.989 461.543 302.695 462.28C302.547 462.575 302.105 462.28 302.253 462.133C302.547 458.447 305.495 453.877 309.032 453.877Z" fill="#263238"/>
<path d="M307.558 486.016C305.053 488.817 302.695 491.766 299.895 494.272C297.242 496.631 294.147 498.695 290.611 498.99C287.221 499.285 283.832 498.547 282.653 494.419C281.621 491.176 281.916 487.638 282.505 483.51C282.505 483.362 282.211 483.215 282.211 483.51C281.326 488.965 280.442 497.368 285.453 499.285C290.905 501.496 296.505 498.695 300.337 494.862C302.989 492.061 305.642 489.259 307.558 486.016C307.558 485.869 307.705 486.016 307.558 486.016Z" fill="#263238"/>
</svg>
