<svg width="206" height="84" viewBox="0 0 206 84" fill="none" xmlns="http://www.w3.org/2000/svg">
<rect width="206" height="84" fill="#62B4FF"/>
<path d="M15.288 58L21.384 26.32H31.944L25.752 58H15.288ZM53.3231 58.96C49.4511 58.96 47.5151 57.456 47.5151 54.448C47.5471 53.616 47.6911 52.496 47.9471 51.088L48.8111 46.672C49.6751 42.512 50.1071 39.968 50.1071 39.04C50.1071 37.184 49.5631 36.256 48.4751 36.256C46.6511 36.256 45.2591 38.64 44.2991 43.408L41.4671 58L31.8191 58.96L36.8111 33.472L44.6831 32.56L43.9151 37.264C45.4191 34.128 48.4751 32.56 53.0831 32.56C55.3231 32.56 56.9071 33.04 57.8351 34C58.7951 34.928 59.2751 36.448 59.2751 38.56C59.2751 40.544 58.7631 43.856 57.7391 48.496C57.2591 50.576 57.0191 52.016 57.0191 52.816C57.0191 53.584 57.2271 54.192 57.6431 54.64C58.0911 55.088 58.6351 55.344 59.2751 55.408C58.9551 56.496 58.2351 57.36 57.1151 58C56.0271 58.64 54.7631 58.96 53.3231 58.96ZM63.8809 53.2C63.8809 52.336 64.1049 50.816 64.5529 48.64L67.0969 35.68H64.2649L64.4569 34.24C68.2969 33.088 72.0729 31.104 75.7849 28.288H78.0889L76.9369 33.52H80.6809L80.2489 35.68H76.5529L74.1049 48.64C73.6889 50.624 73.4809 51.952 73.4809 52.624C73.4809 54.16 74.1529 55.088 75.4969 55.408C75.1769 56.496 74.4409 57.36 73.2889 58C72.1369 58.64 70.7449 58.96 69.1129 58.96C67.4809 58.96 66.2009 58.448 65.2729 57.424C64.3449 56.4 63.8809 54.992 63.8809 53.2ZM116.265 49.984C114.153 52.896 112.073 55.12 110.025 56.656C108.009 58.192 105.945 58.96 103.833 58.96C101.753 58.96 100.345 58.752 99.6086 58.336V47.776C97.7846 52.64 95.2406 56.016 91.9766 57.904C90.7926 58.608 89.6406 58.96 88.5206 58.96C86.3766 58.96 84.8406 58.752 83.9126 58.336C83.6886 51.008 83.4806 46.336 83.2886 44.32C83.0966 42.272 82.9206 40.624 82.7606 39.376C82.4406 36.88 81.7366 35.12 80.6486 34.096C82.0246 33.072 83.6726 32.56 85.5926 32.56C89.3046 32.56 91.4166 34.864 91.9286 39.472C92.0566 40.56 92.1206 41.68 92.1206 42.832C92.1206 44.56 91.9286 48.432 91.5446 54.448C92.3126 54.096 93.0966 53.296 93.8966 52.048C94.7286 50.768 95.4806 49.264 96.1526 47.536C97.6566 43.536 98.4086 39.808 98.4086 36.352C98.4086 35.808 98.3286 35.248 98.1686 34.672C98.0406 34.096 97.8966 33.728 97.7366 33.568C98.8566 32.896 100.265 32.56 101.961 32.56C103.689 32.56 104.953 33.152 105.753 34.336C106.585 35.488 107.113 37.136 107.337 39.28C107.593 42 107.721 44.176 107.721 45.808C107.721 48.08 107.609 50.896 107.385 54.256C108.985 53.104 110.441 50.64 111.753 46.864C113.065 43.088 113.721 39.856 113.721 37.168C113.721 35.984 113.625 35.04 113.433 34.336C114.489 33.152 115.929 32.56 117.753 32.56C118.873 32.56 119.833 32.864 120.633 33.472C121.465 34.08 121.881 34.96 121.881 36.112C121.881 37.232 121.705 38.4 121.353 39.616C121.033 40.832 120.601 42.064 120.057 43.312C119.001 45.808 117.737 48.032 116.265 49.984ZM142.6 49.888C143.4 50.432 143.8 51.312 143.8 52.528C143.8 53.712 143.496 54.688 142.888 55.456C142.28 56.224 141.48 56.864 140.488 57.376C138.44 58.432 136.312 58.96 134.104 58.96C131.896 58.96 130.136 58.72 128.824 58.24C127.544 57.76 126.472 57.072 125.608 56.176C123.912 54.48 123.064 52.08 123.064 48.976C123.064 44.144 124.376 40.256 127 37.312C129.816 34.144 133.672 32.56 138.568 32.56C141.608 32.56 143.88 33.2 145.384 34.48C146.504 35.44 147.064 36.704 147.064 38.272C147.064 43.904 142.2 46.72 132.472 46.72C132.344 47.552 132.28 48.32 132.28 49.024C132.28 50.496 132.6 51.52 133.24 52.096C133.912 52.64 134.856 52.912 136.072 52.912C137.288 52.912 138.536 52.64 139.816 52.096C141.128 51.52 142.056 50.784 142.6 49.888ZM132.808 44.656C135.08 44.656 136.872 43.952 138.184 42.544C139.496 41.2 140.152 39.456 140.152 37.312C140.152 36.576 140.008 36.016 139.72 35.632C139.464 35.216 139.064 35.008 138.52 35.008C137.976 35.008 137.464 35.12 136.984 35.344C136.536 35.536 136.072 35.984 135.592 36.688C134.408 38.288 133.48 40.944 132.808 44.656ZM168.147 49.888C168.947 50.432 169.347 51.312 169.347 52.528C169.347 53.712 169.043 54.688 168.435 55.456C167.827 56.224 167.027 56.864 166.035 57.376C163.987 58.432 161.859 58.96 159.651 58.96C157.443 58.96 155.683 58.72 154.371 58.24C153.091 57.76 152.019 57.072 151.155 56.176C149.459 54.48 148.611 52.08 148.611 48.976C148.611 44.144 149.923 40.256 152.547 37.312C155.363 34.144 159.219 32.56 164.115 32.56C167.155 32.56 169.427 33.2 170.931 34.48C172.051 35.44 172.611 36.704 172.611 38.272C172.611 43.904 167.747 46.72 158.019 46.72C157.891 47.552 157.827 48.32 157.827 49.024C157.827 50.496 158.147 51.52 158.787 52.096C159.459 52.64 160.403 52.912 161.619 52.912C162.835 52.912 164.083 52.64 165.363 52.096C166.675 51.52 167.603 50.784 168.147 49.888ZM158.355 44.656C160.627 44.656 162.419 43.952 163.731 42.544C165.043 41.2 165.699 39.456 165.699 37.312C165.699 36.576 165.555 36.016 165.267 35.632C165.011 35.216 164.611 35.008 164.067 35.008C163.523 35.008 163.011 35.12 162.531 35.344C162.083 35.536 161.619 35.984 161.139 36.688C159.955 38.288 159.027 40.944 158.355 44.656ZM175.021 53.2C175.021 52.336 175.246 50.816 175.694 48.64L178.238 35.68H175.406L175.598 34.24C179.438 33.088 183.214 31.104 186.926 28.288H189.23L188.078 33.52H191.822L191.39 35.68H187.694L185.246 48.64C184.83 50.624 184.622 51.952 184.622 52.624C184.622 54.16 185.294 55.088 186.638 55.408C186.318 56.496 185.582 57.36 184.43 58C183.278 58.64 181.886 58.96 180.254 58.96C178.622 58.96 177.342 58.448 176.414 57.424C175.486 56.4 175.021 54.992 175.021 53.2Z" fill="white"/>
</svg>
